<svg width="48" height="48" viewBox="0 0 48 48" fill="none" xmlns="http://www.w3.org/2000/svg">
<circle cx="24" cy="24" r="24" fill="#E5F1FF"/>
<g clip-path="url(#clip0_28:333)">
<path d="M24 24.5209L27.7716 28.2915L26.5138 29.5493L24.8889 27.9244V32.8889H23.1111V27.9226L21.4862 29.5493L20.2285 28.2915L24 24.5209ZM24 15.1111C25.5262 15.1112 26.9992 15.6721 28.1388 16.6872C29.2785 17.7023 30.0054 19.1008 30.1813 20.6169C31.2874 20.9185 32.2522 21.5992 32.9073 22.54C33.5623 23.4808 33.8659 24.6219 33.765 25.7639C33.6641 26.9058 33.1651 27.976 32.3552 28.7874C31.5453 29.5987 30.476 30.0997 29.3342 30.2026V28.4124C29.7433 28.354 30.1366 28.2147 30.4912 28.0026C30.8458 27.7905 31.1546 27.51 31.3996 27.1772C31.6446 26.8445 31.8209 26.4663 31.9181 26.0647C32.0154 25.6631 32.0316 25.2462 31.966 24.8383C31.9003 24.4303 31.7541 24.0395 31.5358 23.6887C31.3174 23.3379 31.0314 23.0341 30.6944 22.7951C30.3574 22.556 29.9762 22.3865 29.5729 22.2963C29.1697 22.2062 28.7525 22.1973 28.3458 22.2702C28.485 21.6221 28.4775 20.9511 28.3238 20.3062C28.17 19.6614 27.874 19.0592 27.4574 18.5436C27.0408 18.028 26.5141 17.6121 25.916 17.3264C25.3178 17.0407 24.6633 16.8924 24.0005 16.8924C23.3376 16.8924 22.6831 17.0407 22.0849 17.3264C21.4868 17.6121 20.9601 18.028 20.5435 18.5436C20.1269 19.0592 19.8309 19.6614 19.6771 20.3062C19.5234 20.9511 19.5159 21.6221 19.6551 22.2702C18.8441 22.1179 18.0059 22.294 17.3248 22.7598C16.6436 23.2255 16.1754 23.9428 16.0231 24.7538C15.8708 25.5647 16.0469 26.403 16.5127 27.0841C16.9784 27.7652 17.6957 28.2335 18.5067 28.3858L18.6667 28.4124V30.2026C17.5249 30.0998 16.4555 29.599 15.6455 28.7877C14.8354 27.9764 14.3363 26.9062 14.2353 25.7643C14.1342 24.6223 14.4378 23.4811 15.0928 22.5402C15.7478 21.5993 16.7126 20.9185 17.8187 20.6169C17.9944 19.1008 18.7213 17.7021 19.861 16.687C21.0007 15.6718 22.4737 15.111 24 15.1111Z" fill="#007BFF"/>
</g>
<defs>
<clipPath id="clip0_28:333">
<rect width="21.3333" height="21.3333" fill="white" transform="translate(13.3333 13.3333)"/>
</clipPath>
</defs>
</svg>
