<svg width="24" height="25" viewBox="0 0 24 25" fill="none" xmlns="http://www.w3.org/2000/svg">
<path d="M2 8.5C2 8.23478 2.10536 7.98043 2.29289 7.79289C2.48043 7.60536 2.73478 7.5 3 7.5H21C21.2652 7.5 21.5196 7.60536 21.7071 7.79289C21.8946 7.98043 22 8.23478 22 8.5C22 8.76522 21.8946 9.01957 21.7071 9.20711C21.5196 9.39464 21.2652 9.5 21 9.5H3C2.73478 9.5 2.48043 9.39464 2.29289 9.20711C2.10536 9.01957 2 8.76522 2 8.5Z" fill="black"/>
<path d="M2 12.5C2 12.2348 2.10536 11.9804 2.29289 11.7929C2.48043 11.6054 2.73478 11.5 3 11.5H21C21.2652 11.5 21.5196 11.6054 21.7071 11.7929C21.8946 11.9804 22 12.2348 22 12.5C22 12.7652 21.8946 13.0196 21.7071 13.2071C21.5196 13.3946 21.2652 13.5 21 13.5H3C2.73478 13.5 2.48043 13.3946 2.29289 13.2071C2.10536 13.0196 2 12.7652 2 12.5Z" fill="black"/>
<path d="M3 15.5C2.73478 15.5 2.48043 15.6054 2.29289 15.7929C2.10536 15.9804 2 16.2348 2 16.5C2 16.7652 2.10536 17.0196 2.29289 17.2071C2.48043 17.3946 2.73478 17.5 3 17.5H15C15.2652 17.5 15.5196 17.3946 15.7071 17.2071C15.8946 17.0196 16 16.7652 16 16.5C16 16.2348 15.8946 15.9804 15.7071 15.7929C15.5196 15.6054 15.2652 15.5 15 15.5H3Z" fill="black"/>
</svg>
