<svg width="9" height="6" viewBox="0 0 9 6" fill="none" xmlns="http://www.w3.org/2000/svg">
<path fill-rule="evenodd" clip-rule="evenodd" d="M0.234351 0.834319C0.384373 0.684342 0.58782 0.600089 0.799951 0.600089C1.01208 0.600089 1.21553 0.684342 1.36555 0.834319L3.99995 3.46872L6.63435 0.834319C6.70815 0.75791 6.79642 0.696965 6.89403 0.655037C6.99163 0.61311 7.09661 0.591041 7.20283 0.590118C7.30905 0.589195 7.4144 0.609436 7.51271 0.649661C7.61103 0.689886 7.70035 0.749288 7.77547 0.824402C7.85058 0.899516 7.90998 0.988838 7.95021 1.08716C7.99043 1.18547 8.01067 1.29082 8.00975 1.39704C8.00883 1.50326 7.98676 1.60824 7.94483 1.70584C7.9029 1.80345 7.84196 1.89172 7.76555 1.96552L4.56555 5.16552C4.41553 5.3155 4.21208 5.39975 3.99995 5.39975C3.78782 5.39975 3.58437 5.3155 3.43435 5.16552L0.234351 1.96552C0.0843745 1.8155 0.00012207 1.61205 0.00012207 1.39992C0.00012207 1.18779 0.0843745 0.984341 0.234351 0.834319Z" fill="#102A43"/>
</svg>
