<svg width="52" height="56" viewBox="0 0 52 56" fill="none" xmlns="http://www.w3.org/2000/svg">
<path d="M51.9149 19.83C51.9562 19.9154 51.9699 20.0116 51.954 20.1052C51.938 20.1987 51.8933 20.285 51.826 20.3519C51.5027 20.684 51.1514 20.9878 50.776 21.2598C50.2548 21.6028 48.4851 22.5493 48.0597 22.7964C47.6342 23.0435 45.1788 24.2916 44.7808 24.429C44.2412 24.6075 43.6851 24.7316 43.1208 24.7995C42.5722 24.8541 41.9824 24.6346 41.9824 24.5797C41.9824 24.5247 40.7203 22.1929 40.6379 21.5615C40.5223 20.9604 40.3616 20.369 40.1572 19.792C40.1572 19.792 40.1164 20.107 40.0618 20.6145C40.0072 21.122 40.0343 21.8495 40.0068 22.1237C39.9794 22.398 39.4715 31.905 39.4853 32.2755C39.4992 32.646 39.3483 33.7707 39.3483 33.7707C39.3483 33.7707 39.5539 40.0814 39.499 40.3419C39.444 40.6025 39.4715 40.6569 39.5126 41.0141C39.5538 41.3713 39.6911 44.2929 39.7324 44.7456C39.7737 45.1984 40.1029 49.3413 40.1986 50.4935C40.2944 51.6457 40.1575 52.7433 40.2811 53.388C40.4046 54.0327 40.4321 54.5406 40.1437 54.76C39.8553 54.9795 38.333 55.2675 37.5922 55.309C36.8514 55.3505 34.5332 55.4871 34.1078 55.5015C33.6823 55.5159 32.1047 55.7346 31.5836 55.7071C31.0624 55.6796 23.0231 55.7208 21.5688 55.8307C20.1146 55.9406 16.7263 55.9677 15.5326 55.7621C14.3389 55.5564 12.1994 55.0211 12.1994 54.7194C12.1994 54.4177 12.3775 50.9608 12.3775 49.3557C12.3775 47.7506 12.7625 44.3207 12.7755 43.0863C12.7884 41.8518 13.1185 36.5838 13.1185 35.9113C13.1185 35.2388 12.8717 32.6738 12.8441 30.7803C12.8164 28.8868 12.556 21.1639 12.3911 20.8483C12.2263 20.5328 12.1306 20.5461 12.0062 20.9579C11.8817 21.3697 11.6912 22.1241 11.4164 22.4671C11.1417 22.8101 10.8674 23.2488 10.5248 23.7703C10.4175 24.0328 10.1244 24.4068 10.0719 24.5246C9.97143 24.7508 6.84803 23.8114 6.01188 23.4273C5.17573 23.0432 2.88393 22.1103 2.12915 21.6301C1.37438 21.1499 0.208529 20.2444 0.139929 19.9289C0.104143 19.8135 0.0857394 19.6934 0.0853271 19.5726L0.661431 18.6944C0.661431 18.6944 0.565353 18.763 0.702553 18.5163C0.769254 18.3842 0.862697 18.2674 0.976952 18.1733L1.12763 17.6518L5.06512 9.18757C5.06512 9.18757 5.70983 8.14492 5.88763 7.78862C5.99885 7.53283 6.0924 7.26971 6.16763 7.00112C6.30179 6.55604 6.55189 6.15464 6.8923 5.83807C7.30077 5.44786 7.75075 5.10356 8.2342 4.81135C9.19443 4.26237 12.0203 3.13765 14.229 2.31427C16.4377 1.4909 19.9786 0.352521 19.9786 0.352521L20.9252 0.00952148C20.9252 0.00952148 22.0228 0.640571 22.8327 0.860371C23.6426 1.08017 25.2885 1.5189 26.5506 1.45012C27.8127 1.38135 29.4031 1.45012 31.0913 0.215497C31.2562 0.177961 31.4288 0.1922 31.5853 0.256272L32.5594 0.489722C32.5594 0.489722 32.9157 0.448596 33.0256 0.544671C33.0963 0.604953 33.1747 0.655618 33.2587 0.695346C33.2587 0.695346 39.24 2.79447 40.2965 3.23285C41.3529 3.67122 42.834 4.24785 43.4654 4.6871C44.0968 5.12635 45.9761 7.67785 46.4561 8.7205C46.8978 9.6809 51.0761 18.0903 51.9149 19.83Z" fill="url(#paint0_linear_26:306)"/>
<path opacity="0.3" d="M51.8295 19.8299C51.8708 19.9153 51.8844 20.0115 51.8684 20.1051C51.8524 20.1986 51.8076 20.2849 51.7403 20.3517C51.4174 20.684 51.0665 20.9877 50.6915 21.2596C50.17 21.6026 48.4006 22.5492 47.9751 22.7963C47.5497 23.0434 45.0943 24.2915 44.6964 24.4289C44.1568 24.6073 43.6007 24.7314 43.0365 24.7994C42.4878 24.854 41.8976 24.6345 41.8976 24.5796C41.8976 24.5246 40.6355 22.1927 40.5534 21.5613C40.4378 20.9603 40.2771 20.3688 40.0727 19.7919C40.0727 19.7919 40.0319 20.1069 39.9769 20.6144C39.922 21.1219 39.9495 21.8494 39.922 22.1236C39.8945 22.3978 39.387 31.9049 39.4008 32.2754C39.4147 32.6458 39.2635 33.7706 39.2635 33.7706C39.2635 33.7706 39.4694 40.0812 39.4145 40.3418C39.3595 40.6024 39.387 40.6568 39.4281 41.014C39.4693 41.3712 39.6063 44.2928 39.6476 44.7455C39.6889 45.1982 40.0181 49.3412 40.1141 50.4934C40.2102 51.6456 40.073 52.7432 40.1966 53.3879C40.3201 54.0326 40.3472 54.5404 40.0592 54.7599C39.7711 54.9793 38.2485 55.2674 37.5077 55.3089C36.7669 55.3503 34.4483 55.487 34.0229 55.5014C33.5975 55.5157 32.0204 55.7345 31.4987 55.707C30.977 55.6795 22.9382 55.7206 21.4843 55.8305C20.0304 55.9404 16.6417 55.9676 15.4481 55.7619C14.2544 55.5563 12.1143 55.021 12.1143 54.7193C12.1143 54.4176 12.2928 50.9606 12.2928 49.3555C12.2928 47.7504 12.6778 44.3206 12.6908 43.0862C12.7037 41.8517 13.0338 36.5837 13.0338 35.9112C13.0338 35.2386 12.7865 32.6737 12.759 30.7802C12.7315 28.8867 12.471 21.1637 12.3065 20.8482C12.142 20.5327 12.0459 20.546 11.9215 20.9578C11.797 21.3695 11.6065 22.124 11.3317 22.467C11.057 22.81 10.7824 23.2487 10.4392 23.7702C10.3319 24.0327 10.0392 24.4067 9.98667 24.5244C9.88622 24.7507 6.76282 23.8113 5.92667 23.4272C5.09052 23.0431 2.79907 22.1101 2.0443 21.6299C1.28952 21.1497 0.123671 20.2443 0.0550713 19.9288C0.0191362 19.8134 0.000616442 19.6933 0.00012207 19.5725L0.576568 18.6943C0.576568 18.6943 0.480493 18.7629 0.617343 18.5162C0.684245 18.3841 0.777797 18.2673 0.892094 18.1732L1.04277 17.6517L4.98027 9.18744C4.98027 9.18744 5.62497 8.14478 5.80277 7.78848C5.91398 7.53269 6.00754 7.26957 6.08277 7.00098C6.21679 6.55584 6.46692 6.15441 6.80744 5.83793C7.21579 5.44772 7.66565 5.10343 8.14899 4.81121C9.10922 4.26223 11.9355 3.13751 14.1441 2.31413C16.3528 1.49076 19.8941 0.352383 19.8941 0.352383L20.8391 0.0090332C20.8391 0.0090332 21.9364 0.640083 22.7466 0.859883C23.5569 1.07968 25.202 1.51841 26.4645 1.44963C27.7269 1.38086 29.317 1.44963 31.0052 0.215009C31.1701 0.177443 31.3425 0.191684 31.4989 0.255784L32.4729 0.489234C32.4729 0.489234 32.8296 0.448108 32.9395 0.544183C33.0101 0.604553 33.0885 0.655226 33.1726 0.694858C33.1726 0.694858 39.1539 2.79398 40.2104 3.23236C41.2669 3.67073 42.7479 4.24736 43.3793 4.68661C44.0107 5.12586 45.8897 7.67736 46.37 8.72001C46.8124 9.68076 50.9907 18.0902 51.8295 19.8299Z" fill="url(#paint1_linear_26:306)"/>
<path d="M51.8596 19.8009C51.9174 19.9203 51.9361 20.0549 51.9132 20.1856C51.8904 20.3162 51.8269 20.4364 51.732 20.5291C51.4368 20.8271 51.1171 21.0999 50.7765 21.3447C50.2553 21.6877 48.4856 22.6343 48.0601 22.8811C47.6347 23.1278 45.1793 24.3763 44.7813 24.5136C44.2418 24.6923 43.6856 24.8164 43.1213 24.8841C42.5727 24.9391 41.9829 24.7193 41.9829 24.6647C41.9829 24.6101 40.7208 22.2775 40.6384 21.6464C40.584 21.3107 40.5062 20.9792 40.4056 20.6544C40.3775 20.5579 40.1624 19.9008 40.1624 19.9008C40.1624 19.9008 40.0735 20.5943 40.0637 20.6846L40.0623 20.6999C40.0073 21.2074 40.0348 21.9345 40.0073 22.2087C39.9799 22.4829 39.472 31.99 39.4858 32.3605C39.4658 32.8562 39.4207 33.3506 39.3507 33.8418C39.3494 33.8511 39.3489 33.8604 39.3493 33.8697C39.3598 34.1971 39.5532 40.1735 39.4997 40.4271C39.4451 40.6877 39.4722 40.7421 39.5133 41.0989C39.5544 41.4557 39.6918 44.3777 39.7331 44.8304C39.7744 45.2832 40.1036 49.4261 40.1993 50.5783C40.295 51.7305 40.1582 52.8285 40.2817 53.4732C40.4053 54.1179 40.4328 54.6254 40.1444 54.8452C39.856 55.065 38.3336 55.3527 37.5929 55.3938C36.8521 55.4349 34.5339 55.5719 34.1084 55.5863C33.683 55.6006 32.1054 55.8194 31.5842 55.7923C31.0631 55.7651 23.0238 55.8059 21.5695 55.9148C20.1153 56.0236 16.7269 56.0521 15.5332 55.8462C14.3396 55.6402 12.2 55.1056 12.2 54.8039C12.2 54.5022 12.3782 51.0449 12.3782 49.4398C12.3782 47.8347 12.7632 44.4048 12.7761 43.1704C12.7891 41.9359 13.1191 36.6679 13.1191 35.9954C13.1191 35.3229 12.8724 32.7579 12.8447 30.8647C12.8171 28.9716 12.5567 21.248 12.3918 20.9324C12.227 20.6169 12.1312 20.6307 12.0068 21.0423C11.8824 21.4539 11.6918 22.2082 11.4171 22.5512C11.1449 22.8912 10.8725 23.3261 10.5335 23.8422C10.5283 23.8504 10.5237 23.859 10.5198 23.8679C10.4085 24.1304 10.1245 24.4932 10.0727 24.6092C9.97226 24.8351 6.84886 23.8957 6.01271 23.5116C5.17656 23.1275 2.88476 22.1945 2.12999 21.7147C1.37521 21.2348 0.209362 20.329 0.140762 20.0135C0.108562 19.8646 0.0945637 19.7767 0.0882637 19.7258C0.0836627 19.6853 0.0935164 19.6445 0.116088 19.6105L0.600665 18.8718C0.618949 18.8412 0.628791 18.8063 0.629189 18.7707C0.64311 18.7099 0.668082 18.6522 0.702863 18.6004C0.764821 18.4839 0.845255 18.3782 0.941036 18.2875C0.964887 18.2662 0.982388 18.2387 0.991611 18.208L1.12427 17.749C1.12688 17.7405 1.13003 17.7321 1.13371 17.724L5.06089 9.28094C5.06381 9.27492 5.06708 9.26908 5.07069 9.26344C5.13211 9.16369 5.71941 8.21064 5.88864 7.87272C5.99399 7.63185 6.08275 7.38405 6.15429 7.13107C6.29716 6.65604 6.56417 6.22773 6.92779 5.89032C7.32643 5.51282 7.76459 5.17939 8.23469 4.89579C9.19491 4.34717 12.0208 3.22209 14.2295 2.39872C16.4382 1.57534 19.9777 0.436968 19.9777 0.436968L20.8487 0.121969C20.8723 0.113451 20.8974 0.110106 20.9224 0.11216C20.9474 0.114213 20.9717 0.121616 20.9936 0.133869C21.5768 0.466312 22.1925 0.738163 22.8311 0.945169C23.6406 1.16462 25.2869 1.60369 26.549 1.53492C27.8042 1.46667 29.385 1.53492 31.0619 0.320594C31.08 0.306937 31.1008 0.297221 31.1229 0.292069C31.2744 0.265168 31.4304 0.280796 31.5736 0.337218C31.5811 0.340263 31.5888 0.342778 31.5967 0.344743L32.5287 0.567693C32.5469 0.572047 32.5657 0.573523 32.5844 0.572069C32.6696 0.564894 32.9324 0.549669 33.0238 0.629469C33.0918 0.687535 33.167 0.736697 33.2474 0.775769C33.2531 0.778524 33.259 0.78092 33.2649 0.782944C33.5099 0.869394 39.2608 2.88854 40.2945 3.31834C41.351 3.75707 42.832 4.33334 43.4634 4.77224C44.0948 5.21114 45.9741 7.76299 46.4542 8.80564C46.8887 9.74679 50.9083 17.8377 51.8596 19.8009Z" fill="url(#paint2_linear_26:306)"/>
<path d="M32.5586 0.489301C32.5586 0.489301 31.5543 3.03625 26.244 3.03625C20.434 3.03625 19.2716 0.5761 19.2716 0.5761C19.2716 0.5761 20.1405 0.292775 20.9317 0C23.6116 1.66897 29.0989 1.96385 31.1977 0.0845253L32.5586 0.489301Z" fill="url(#paint3_radial_26:306)"/>
<path opacity="0.5" d="M12.3922 20.8473C12.3922 20.8473 11.4337 18.5289 11.0863 17.5957C10.7389 16.6624 10.7571 13.9557 10.7571 13.9557C10.7571 13.9557 10.5743 12.1266 9.51306 11.4131C10.0723 12.086 10.4277 12.9047 10.5373 13.7728C10.5923 14.6506 10.4644 16.5712 10.6472 17.3211C10.8301 18.071 12.0637 20.7686 12.0637 20.7686C12.0637 20.7686 12.1186 20.6211 12.2112 20.6247C12.3038 20.6284 12.3922 20.8473 12.3922 20.8473Z" fill="url(#paint4_linear_26:306)"/>
<path opacity="0.5" d="M40.1581 19.7918C40.1581 19.7918 40.8831 18.7217 41.1573 17.734C41.4316 16.7463 41.5689 15.8134 41.6239 15.6762C41.7456 15.5018 41.9049 15.3571 42.0901 15.2526C42.2752 15.1481 42.4815 15.0866 42.6937 15.0726C43.2701 15.0451 43.7638 15.1275 43.6677 15.5941C43.5716 16.0606 42.1725 15.553 42.0351 16.2941C41.8978 17.0352 42.9954 18.9693 43.0092 19.6278C43.0092 19.6278 42.2957 17.378 41.6647 17.4605C41.0336 17.5429 41.6647 19.2028 41.7471 19.5458C41.7471 19.5458 41.2259 18.4893 41.0611 18.6676C40.8962 18.8459 40.4026 20.5198 40.4026 20.5198C40.3389 20.2715 40.2572 20.0282 40.1581 19.7918Z" fill="url(#paint5_linear_26:306)"/>
<path opacity="0.2" d="M21.4101 17.1624C21.2143 17.6832 20.1785 20.4223 19.3063 22.4057C18.6297 23.9457 15.9563 24.2164 14.8413 22.842C14.821 22.8166 14.8009 22.7911 14.781 22.765C14.2775 22.0989 13.381 26.1673 13.1267 27.455C12.8724 28.7426 14.4278 32.9164 17.0017 33.5737C19.5756 34.231 18.9617 30.8437 19.811 25.1245C20.6603 19.4053 24.9691 17.7474 23.5425 16.8894C22.7268 16.3994 21.8403 16.8355 21.5451 17.0105C21.484 17.0442 21.4364 17.0978 21.4101 17.1624Z" fill="url(#paint6_linear_26:306)"/>
<path opacity="0.2" d="M31.2938 19.5478C31.8723 20.7069 32.7052 22.4315 33.2967 23.8957C33.7051 24.9058 35.004 25.4065 36.1262 24.9818C36.7379 24.7593 37.2633 24.3489 37.6272 23.8093C38.1307 23.0618 39.0272 27.6265 39.2815 29.0699C39.5358 30.5133 37.9804 35.1967 35.4065 35.9343C32.8326 36.6719 32.1289 31.3794 31.2801 24.9639C30.4314 18.5484 29.3595 18.9493 28.3169 17.2651C28.0794 16.8817 28.3909 16.9526 28.8543 17.1776C29.906 17.6778 30.7635 18.5109 31.2938 19.5478Z" fill="url(#paint7_linear_26:306)"/>
<path opacity="0.2" d="M6.6413 6.89576C7.20675 7.70735 7.83682 8.47196 8.52535 9.18214C10.3278 11.112 11.2872 12.9961 11.013 13.7916C10.7387 14.5872 10.6197 14.6059 10.7022 16.1148C10.7846 17.6236 12.3141 20.7104 12.3141 20.7104C12.3141 20.7104 12.218 20.5799 12.1492 20.6212C12.0805 20.6625 11.7411 22.0037 11.5595 22.2573C11.3779 22.5108 10.8873 23.2345 10.7846 23.3956C10.6819 23.5568 11.4706 20.5867 11.0863 19.5169C10.702 18.4472 9.2341 16.5262 9.72812 15.0994C10.2221 13.6726 9.22062 10.5998 7.94452 9.99624C7.08646 9.55638 6.30756 8.9768 5.63977 8.28124C5.63977 8.28124 6.09267 7.70514 6.1751 7.29354C6.19215 7.18233 6.24862 7.08096 6.33421 7.00793C6.41979 6.9349 6.52879 6.89509 6.6413 6.89576Z" fill="url(#paint8_linear_26:306)"/>
<path opacity="0.2" d="M40.1581 19.7914C40.1581 19.7914 40.4715 17.8708 40.7732 15.9778C41.0749 14.0848 41.8708 13.0416 42.8585 11.6427C43.8462 10.2437 45.3827 8.04837 45.8493 8.32277C46.3158 8.59717 47.1388 10.0514 47.1388 10.3256C47.1388 10.5999 44.5049 10.8193 43.1329 11.9994C41.7609 13.1794 41.5003 16.5264 41.4043 17.2399C41.3082 17.9534 40.2934 20.1482 40.2934 20.1482L40.1581 19.7914Z" fill="url(#paint9_linear_26:306)"/>
<path opacity="0.2" d="M14.3788 38.4486C14.3788 38.4486 13.0068 46.3506 14.0497 48.326C15.0925 50.3014 18.2201 51.728 19.6469 49.9172C21.0736 48.1065 21.4576 42.7288 24.0366 40.0947C26.6155 37.4606 28.0966 31.9733 23.378 30.7659C18.6595 29.5586 14.9275 34.2234 14.3788 38.4486Z" fill="url(#paint10_linear_26:306)"/>
<path opacity="0.2" d="M32.9547 26.9174C32.9547 26.9174 30.7375 35.5342 31.6352 40.0742C30.5502 38.0951 29.4491 36.2169 28.5664 36.4445C26.999 36.849 25.1496 43.2193 22.8614 44.9046C20.5733 46.5898 20.259 50.6005 20.259 50.6005C20.1965 51.3085 20.3218 53.0274 24.3339 52.3529C28.3459 51.6785 33.0165 53.3982 35.3046 52.1172C36.4521 51.4749 36.5352 49.8327 36.1271 48.1466C36.9671 49.0715 37.6726 49.653 37.9681 49.6938C38.8459 49.8163 38.3862 42.2642 38.8459 38.2446C39.3057 34.225 35.88 18.9398 32.9547 26.9174Z" fill="url(#paint11_linear_26:306)"/>
<path opacity="0.2" d="M0.879639 18.8401C2.18019 20.0526 3.64583 21.075 5.23294 21.8767C6.85129 22.651 8.56861 23.1987 10.3365 23.5042" stroke="#707070" stroke-width="0.304" stroke-miterlimit="10" stroke-linecap="round"/>
<path opacity="0.2" d="M51.4191 19.2427C51.4191 19.2427 51.5012 19.5444 49.9921 20.4224C48.4831 21.3003 44.5598 23.4131 43.3523 23.55C42.1448 23.6868 41.6511 23.6049 41.6511 23.6049" stroke="#707070" stroke-width="0.304" stroke-miterlimit="10" stroke-linecap="round"/>
<path opacity="0.2" d="M46.5072 12.1086C46.5072 12.1086 50.4857 16.4987 49.8817 18.5292C49.2778 20.5597 45.6016 22.4527 44.5318 22.7546C43.462 23.0565 43.7634 22.0136 44.4219 20.9985C45.0804 19.9833 46.9734 18.5017 46.178 16.1422C45.3827 13.7827 45.4922 12.5202 46.5072 12.1086Z" fill="url(#paint12_linear_26:306)"/>
<path opacity="0.5" d="M16.2445 28.6261C16.1071 27.446 14.6257 25.6903 13.9123 24.73C13.1988 23.7698 12.3922 20.8477 12.3922 20.8477L12.5404 23.3031C12.5404 23.3031 12.8696 29.0377 12.8834 30.1631C12.8973 31.2885 13.1578 35.2391 13.1578 35.2391C13.1578 35.2391 13.2189 36.1796 13.277 37.2989C13.2476 37.3593 13.226 37.4231 13.2126 37.4889C13.1988 37.6079 13.2313 37.7275 13.3033 37.8232C13.3636 39.0657 13.4098 40.3791 13.3636 40.8225C13.2676 41.7416 12.8147 45.3771 13.0486 45.3771C13.2826 45.3771 13.8711 41.3986 13.9952 39.9993C14.0255 39.2636 13.9608 38.527 13.8027 37.8078C13.9625 37.6777 14.1013 37.5239 14.2143 37.3517C14.9278 36.3367 13.0346 28.2152 13.364 28.2152C13.6933 28.2152 15.5039 32.9346 15.779 32.5228C16.0541 32.111 13.2275 26.5962 13.8309 27.3921C14.4343 28.188 16.381 29.8057 16.2445 28.6261ZM13.8024 35.1698C13.8568 35.6711 13.779 36.1779 13.5768 36.6398C13.4815 36.1722 13.4104 35.6999 13.3636 35.225C13.2401 33.7432 13.0206 29.751 13.0206 29.751C13.1031 30.3272 13.651 34.0584 13.8024 35.1698Z" fill="url(#paint13_linear_26:306)"/>
<path opacity="0.4" d="M39.9778 21.4102C39.9778 21.4102 38.3318 24.5378 37.0146 25.5256C35.6973 26.5135 36.4656 31.4795 37.042 31.8081C37.6185 32.1368 37.5632 28.2138 38.3591 28.2138C39.155 28.2138 38.0024 34.1677 38.4961 36.3077C38.9898 38.4478 39.1683 39.8886 39.3877 39.9024C39.6072 39.9162 39.3741 35.238 39.3057 34.4834C39.2372 33.7288 39.4563 30.5187 39.4563 30.5187L39.9778 21.4102Z" fill="url(#paint14_linear_26:306)"/>
<path opacity="0.2" d="M8.48881 4.81123C8.32396 4.84781 6.91556 5.59768 6.56819 6.74988C6.22081 7.90208 9.56786 9.98738 10.0985 11.2124C10.6291 12.4374 11.5434 12.7491 11.5069 11.4686C11.4703 10.1881 9.58624 6.23713 10.8849 4.90206C12.1836 3.56698 13.1347 4.57288 14.0675 4.26156C15.0002 3.95023 15.695 1.90186 15.695 1.90186L8.48881 4.81123Z" fill="url(#paint15_linear_26:306)"/>
<g style="mix-blend-mode:multiply" opacity="0.3">
<path d="M40.1581 19.7913C40.1581 19.7913 40.8625 18.8241 41.1162 17.9327C41.37 17.0412 41.6309 15.6276 41.6309 15.6276C41.8978 15.3337 42.1473 15.0245 42.3783 14.7016C42.68 14.2629 42.7075 13.5769 42.7075 13.5769C42.7075 13.5769 42.8106 14.5303 41.8159 15.6757C41.706 15.8885 41.3836 17.5897 41.1916 18.0216C40.9997 18.4535 40.2246 20.0108 40.2246 20.0108L40.1581 19.7913Z" fill="#728DA1"/>
</g>
<path opacity="0.3" d="M6.42215 10.8467C6.61833 11.0774 7.24465 11.6692 7.50138 13.4257C7.7581 15.1822 8.12333 17.6695 8.72638 18.7121C9.32943 19.7548 10.2813 22.0961 10.0798 22.6997C9.8784 23.3032 7.5922 22.6631 6.8607 21.8947C6.1292 21.1262 7.51923 18.6206 7.29943 16.6272C7.07963 14.6337 7.04358 11.7434 6.2937 11.6155C5.54382 11.4876 6.51315 17.3223 5.81805 18.493C5.12295 19.6638 4.17182 19.8465 3.58627 19.1879C3.00072 18.5294 4.72045 17.8345 4.97665 15.9319C5.23285 14.0293 5.63518 12.1822 5.30583 11.9993C4.97648 11.8164 2.65335 17.3767 2.06833 17.2493C1.4833 17.1219 5.0862 8.78034 5.54365 8.70737C6.0011 8.63439 6.25678 8.99979 6.3301 9.38392C6.40343 9.76804 5.80003 10.1152 6.42215 10.8467Z" fill="url(#paint16_linear_26:306)"/>
<path opacity="0.2" d="M44.9805 11.3224C44.0658 12.0358 43.9559 12.6944 44.0108 13.7374C44.0658 14.7804 45.2549 16.0967 45.2549 17.8528C45.2549 19.609 43.4986 20.8891 43.9925 21.5291C44.4863 22.169 46.3152 20.8341 46.425 19.078C46.5347 17.3219 45.2 14.7793 45.6385 14.5784C46.0771 14.3775 48.7661 17.3219 49.2054 17.0295C49.6446 16.737 45.5654 12.6209 45.8763 12.1272C46.1873 11.6335 47.7784 12.42 47.76 12.1272C47.7417 11.8344 47.0651 10.8651 46.7358 10.9197C46.4064 10.9743 45.464 10.9451 44.9805 11.3224Z" fill="url(#paint17_linear_26:306)"/>
<path opacity="0.4" d="M19.8936 1.38097C19.8936 1.38097 21.6222 3.0272 25.7102 3.0272C29.7982 3.0272 31.3627 1.87465 32.0758 1.1897" stroke="#C1D1D4" stroke-width="0.304" stroke-miterlimit="10"/>
<path opacity="0.1" d="M20.1406 31.0134C17.7838 32.4912 17.8358 33.8118 18.5218 35.8971C19.2078 37.9824 21.4303 41.2201 22.6378 41.0277C23.8453 40.8354 26.5617 37.3237 26.8361 34.7995C27.1105 32.2753 24.6136 30.7661 23.6532 30.6291C22.6928 30.492 21.7593 29.9982 20.1406 31.0134Z" fill="url(#paint18_linear_26:306)"/>
<defs>
<linearGradient id="paint0_linear_26:306" x1="-1115.75" y1="27.9624" x2="-1063.87" y2="27.9624" gradientUnits="userSpaceOnUse">
<stop stop-color="#C5D0DB"/>
<stop offset="0.048" stop-color="#CDD6E0"/>
<stop offset="0.166" stop-color="#DCE2E9"/>
<stop offset="0.304" stop-color="#E5E9EE"/>
<stop offset="0.514" stop-color="#E8ECF0"/>
<stop offset="0.784" stop-color="#E6EAEE"/>
<stop offset="0.881" stop-color="#DFE5EA"/>
<stop offset="0.95" stop-color="#D3DBE3"/>
<stop offset="1" stop-color="#C5D0DB"/>
</linearGradient>
<linearGradient id="paint1_linear_26:306" x1="-1089.73" y1="55.9151" x2="-1089.73" y2="0.0090332" gradientUnits="userSpaceOnUse">
<stop stop-color="#C5D0DB"/>
<stop offset="0.04" stop-color="#C8D3DD" stop-opacity="0.89"/>
<stop offset="0.125" stop-color="#D0D8E1" stop-opacity="0.682"/>
<stop offset="0.216" stop-color="#D6DEE5" stop-opacity="0.498"/>
<stop offset="0.312" stop-color="#DBE2E8" stop-opacity="0.345"/>
<stop offset="0.413" stop-color="#E0E5EB" stop-opacity="0.22"/>
<stop offset="0.522" stop-color="#E3E8ED" stop-opacity="0.122"/>
<stop offset="0.643" stop-color="#E6EAEE" stop-opacity="0.051"/>
<stop offset="0.785" stop-color="#E7EBEF" stop-opacity="0.012"/>
<stop offset="1" stop-color="#E8ECF0" stop-opacity="0"/>
</linearGradient>
<linearGradient id="paint2_linear_26:306" x1="-1089.81" y1="34.3706" x2="-1089.81" y2="-23.1376" gradientUnits="userSpaceOnUse">
<stop stop-color="white" stop-opacity="0"/>
<stop offset="0.076" stop-color="white" stop-opacity="0.184"/>
<stop offset="0.166" stop-color="white" stop-opacity="0.373"/>
<stop offset="0.262" stop-color="white" stop-opacity="0.541"/>
<stop offset="0.36" stop-color="white" stop-opacity="0.682"/>
<stop offset="0.463" stop-color="white" stop-opacity="0.8"/>
<stop offset="0.572" stop-color="white" stop-opacity="0.886"/>
<stop offset="0.69" stop-color="white" stop-opacity="0.953"/>
<stop offset="0.822" stop-color="white" stop-opacity="0.988"/>
<stop offset="1" stop-color="white"/>
</linearGradient>
<radialGradient id="paint3_radial_26:306" cx="0" cy="0" r="1" gradientUnits="userSpaceOnUse" gradientTransform="translate(-78.1794 -10.2885) rotate(-167.152) scale(8.78105 5.17495)">
<stop offset="0.022" stop-color="#F1F4F8"/>
<stop offset="0.324" stop-color="#EEF1F5"/>
<stop offset="0.392" stop-color="#ECF0F4"/>
<stop offset="0.536" stop-color="#E6EBF0"/>
<stop offset="0.719" stop-color="#D6DEE5"/>
<stop offset="0.924" stop-color="#BCCAD3"/>
<stop offset="1" stop-color="#B1C1CC"/>
</radialGradient>
<linearGradient id="paint4_linear_26:306" x1="11.3211" y1="16.017" x2="8.88665" y2="16.0861" gradientUnits="userSpaceOnUse">
<stop stop-color="#B3C6D8"/>
<stop offset="1" stop-color="#CCD9E5" stop-opacity="0"/>
</linearGradient>
<linearGradient id="paint5_linear_26:306" x1="40.6089" y1="17.2377" x2="44.4867" y2="17.9749" gradientUnits="userSpaceOnUse">
<stop stop-color="#B3C6D8"/>
<stop offset="1" stop-color="#CCD9E5" stop-opacity="0"/>
</linearGradient>
<linearGradient id="paint6_linear_26:306" x1="18.4646" y1="31.6668" x2="18.4646" y2="-5.21994" gradientUnits="userSpaceOnUse">
<stop stop-color="#CCD9E5" stop-opacity="0"/>
<stop offset="0.179" stop-color="#CCD9E5" stop-opacity="0.8"/>
<stop offset="1" stop-color="#CCD9E5" stop-opacity="0"/>
</linearGradient>
<linearGradient id="paint7_linear_26:306" x1="-1089.04" y1="33.779" x2="-1089.04" y2="-7.49169" gradientUnits="userSpaceOnUse">
<stop stop-color="#CCD9E5" stop-opacity="0"/>
<stop offset="0.179" stop-color="#CCD9E5" stop-opacity="0.8"/>
<stop offset="1" stop-color="#CCD9E5" stop-opacity="0"/>
</linearGradient>
<linearGradient id="paint8_linear_26:306" x1="10.9726" y1="14.4556" x2="3.07285" y2="14.8463" gradientUnits="userSpaceOnUse">
<stop stop-color="#CCD9E5"/>
<stop offset="1" stop-color="#CCD9E5" stop-opacity="0"/>
</linearGradient>
<linearGradient id="paint9_linear_26:306" x1="46.8247" y1="13.0626" x2="26.8114" y2="15.1697" gradientUnits="userSpaceOnUse">
<stop stop-color="#CCD9E5"/>
<stop offset="1" stop-color="#CCD9E5" stop-opacity="0"/>
</linearGradient>
<linearGradient id="paint10_linear_26:306" x1="20.0554" y1="48.3885" x2="20.0554" y2="4.5844" gradientUnits="userSpaceOnUse">
<stop stop-color="white"/>
<stop offset="0.201" stop-color="white" stop-opacity="0.82"/>
<stop offset="0.653" stop-color="white" stop-opacity="0.365"/>
<stop offset="1" stop-color="white" stop-opacity="0"/>
</linearGradient>
<linearGradient id="paint11_linear_26:306" x1="29.5685" y1="49.3348" x2="29.5685" y2="-11.3667" gradientUnits="userSpaceOnUse">
<stop stop-color="white"/>
<stop offset="0.183" stop-color="white" stop-opacity="0.988"/>
<stop offset="0.316" stop-color="white" stop-opacity="0.953"/>
<stop offset="0.433" stop-color="white" stop-opacity="0.89"/>
<stop offset="0.54" stop-color="white" stop-opacity="0.8"/>
<stop offset="0.642" stop-color="white" stop-opacity="0.686"/>
<stop offset="0.739" stop-color="white" stop-opacity="0.549"/>
<stop offset="0.832" stop-color="white" stop-opacity="0.384"/>
<stop offset="0.92" stop-color="white" stop-opacity="0.196"/>
<stop offset="1" stop-color="white" stop-opacity="0"/>
</linearGradient>
<linearGradient id="paint12_linear_26:306" x1="43.8268" y1="17.4581" x2="49.9441" y2="17.4581" gradientUnits="userSpaceOnUse">
<stop stop-color="white" stop-opacity="0"/>
<stop offset="0.347" stop-color="white" stop-opacity="0.365"/>
<stop offset="0.799" stop-color="white" stop-opacity="0.82"/>
<stop offset="1" stop-color="white"/>
</linearGradient>
<linearGradient id="paint13_linear_26:306" x1="14.3218" y1="42.5071" x2="14.3218" y2="-10.7462" gradientUnits="userSpaceOnUse">
<stop stop-color="#CCD9E5" stop-opacity="0"/>
<stop offset="0.179" stop-color="#CCD9E5" stop-opacity="0.8"/>
<stop offset="1" stop-color="#CCD9E5" stop-opacity="0"/>
</linearGradient>
<linearGradient id="paint14_linear_26:306" x1="38.1334" y1="37.7388" x2="38.1334" y2="-2.4079" gradientUnits="userSpaceOnUse">
<stop stop-color="#CCD9E5"/>
<stop offset="1" stop-color="#CCD9E5" stop-opacity="0"/>
</linearGradient>
<linearGradient id="paint15_linear_26:306" x1="11.119" y1="11.0763" x2="11.119" y2="-11.4806" gradientUnits="userSpaceOnUse">
<stop stop-color="#CCD9E5"/>
<stop offset="1" stop-color="#CCD9E5" stop-opacity="0"/>
</linearGradient>
<linearGradient id="paint16_linear_26:306" x1="2.00427" y1="15.8183" x2="10.1073" y2="15.8183" gradientUnits="userSpaceOnUse">
<stop stop-color="#CCD9E5"/>
<stop offset="1" stop-color="#CCD9E5" stop-opacity="0"/>
</linearGradient>
<linearGradient id="paint17_linear_26:306" x1="43.9049" y1="16.3047" x2="49.2385" y2="16.3047" gradientUnits="userSpaceOnUse">
<stop stop-color="#CCD9E5"/>
<stop offset="1" stop-color="#CCD9E5" stop-opacity="0"/>
</linearGradient>
<linearGradient id="paint18_linear_26:306" x1="22.4836" y1="41.0359" x2="22.4836" y2="30.3882" gradientUnits="userSpaceOnUse">
<stop stop-color="white"/>
<stop offset="0.201" stop-color="white" stop-opacity="0.82"/>
<stop offset="0.653" stop-color="white" stop-opacity="0.365"/>
<stop offset="1" stop-color="white" stop-opacity="0"/>
</linearGradient>
</defs>
</svg>
