<svg width="10" height="16" viewBox="0 0 10 16" fill="none" xmlns="http://www.w3.org/2000/svg">
<path d="M4.27068 15.6136H5.62428C5.93172 15.6136 6.18678 15.3623 6.18678 15.0511V13.75L6.46794 13.675C8.76258 13.0975 9.57637 11.5191 9.57637 10.3455C9.57637 8.17075 7.70148 7.26715 5.86422 6.66721C4.13946 6.09733 3.5883 5.75227 3.5883 5.24233C3.5883 4.78495 4.11696 4.32739 5.3019 4.32739C6.60672 4.32739 7.4241 4.69855 7.77276 4.85983C7.84782 4.89349 7.92648 4.91239 8.00514 4.91239C8.22258 4.91239 8.4213 4.78495 8.51508 4.58983L9.05131 3.45367C9.11503 3.32245 9.12258 3.16495 9.07002 3.02617C9.02125 2.88361 8.91631 2.77111 8.78131 2.70739C8.13637 2.40373 7.43526 2.20861 6.64398 2.11501L6.31404 2.07379V0.945194C6.31404 0.637755 6.06276 0.386475 5.75154 0.386475H4.42044C4.113 0.386475 3.85794 0.637755 3.85794 0.945194V2.20123L3.57678 2.27251C1.7244 2.74123 0.618304 3.92977 0.618304 5.44843C0.618304 7.45075 2.6019 8.34301 4.54788 8.95429C6.34392 9.53929 6.58764 10.0455 6.58764 10.4654C6.58764 11.1141 5.74776 11.5864 4.59288 11.5864C3.61044 11.5864 2.55312 11.3352 1.76562 10.9152C1.68318 10.8702 1.59318 10.8477 1.4994 10.8477C1.43946 10.8477 1.37934 10.8591 1.3194 10.8778C1.17324 10.9303 1.05318 11.0391 0.989464 11.1814L0.471964 12.3325C0.355684 12.5988 0.453244 12.9062 0.708124 13.0488C1.36422 13.4275 2.3391 13.7086 3.3741 13.8249L3.70782 13.8588V15.0511C3.70818 15.3623 3.95946 15.6136 4.27068 15.6136Z" fill="white"/>
</svg>
