<svg width="51" height="56" viewBox="0 0 51 56" fill="none" xmlns="http://www.w3.org/2000/svg">
<g clip-path="url(#clip0_26:66)">
<path d="M0.0541857 20.1665C0.0143223 20.2493 0.00122048 20.3424 0.0167008 20.4329C0.0321811 20.5234 0.0754749 20.6069 0.140567 20.6717C0.453276 20.9932 0.793023 21.2872 1.15606 21.5505C1.66058 21.8824 3.37359 22.7986 3.78509 23.038C4.1966 23.2774 6.57379 24.4853 6.95877 24.6182C7.48104 24.791 8.01931 24.911 8.5655 24.9765C9.09689 25.0297 9.66789 24.8174 9.66789 24.7641C9.66789 24.7109 10.8895 22.4539 10.9692 21.8426C11.0811 21.2608 11.2365 20.6883 11.4341 20.1298C11.4341 20.1298 11.4736 20.4359 11.5268 20.9263C11.58 21.4167 11.5533 22.1213 11.58 22.3871C11.6067 22.6529 12.0978 31.8549 12.0845 32.2135C12.0713 32.5722 12.2175 33.6608 12.2175 33.6608C12.2175 33.6608 12.0184 39.7692 12.0713 40.0214C12.1242 40.2736 12.0978 40.3275 12.058 40.6721C12.0182 41.0168 11.8856 43.8458 11.8456 44.2842C11.8057 44.7226 11.487 48.7327 11.394 49.8478C11.301 50.963 11.434 52.0256 11.3146 52.6496C11.1952 53.2737 11.1683 53.7653 11.4472 53.9776C11.7261 54.19 13.2002 54.4692 13.9174 54.5087C14.6347 54.5481 16.8784 54.6814 17.2902 54.6947C17.7021 54.708 19.2287 54.9204 19.7334 54.8938C20.2381 54.8673 28.0194 54.9071 29.4272 55.0129C30.835 55.1186 34.1146 55.1455 35.2697 54.9464C36.4248 54.7473 38.4966 54.2293 38.4966 53.9372C38.4966 53.645 38.3242 50.2983 38.3242 48.7454C38.3242 47.1926 37.9523 43.872 37.939 42.6769C37.9258 41.4819 37.6071 36.3828 37.6071 35.7321C37.6071 35.0813 37.846 32.5983 37.8725 30.7654C37.8991 28.9326 38.1514 21.4571 38.3109 21.1517C38.4704 20.8463 38.5631 20.8593 38.6824 21.2577C38.8018 21.6561 38.9885 22.3866 39.2538 22.7185C39.5191 23.0504 39.7852 23.4752 40.1168 23.9801C40.2207 24.2341 40.5045 24.5961 40.5551 24.7102C40.6524 24.9292 43.6756 24.02 44.4855 23.6481C45.2954 23.2763 47.5133 22.3728 48.2434 21.9084C48.9736 21.444 50.1025 20.5671 50.1688 20.2617C50.2036 20.15 50.2216 20.0337 50.2221 19.9167L49.6645 19.0665C49.6645 19.0665 49.7575 19.133 49.6245 18.8941C49.56 18.7663 49.4696 18.6532 49.3591 18.5622L49.2129 18.0573L45.4019 9.86499C45.4019 9.86499 44.7778 8.85578 44.6052 8.51043C44.4974 8.26318 44.4071 8.00868 44.3348 7.74881C44.205 7.31794 43.9628 6.92941 43.6331 6.62312C43.2379 6.2453 42.8024 5.91201 42.3345 5.62922C41.405 5.09784 38.6697 4.00923 36.5314 3.21224C34.3931 2.41525 30.9678 1.31337 30.9678 1.31337L30.0516 0.981445C30.0516 0.981445 28.9892 1.59224 28.2056 1.80496C27.422 2.01769 25.8289 2.44194 24.6073 2.37597C23.3857 2.30999 21.8455 2.37597 20.2121 1.18057C20.0524 1.14446 19.8854 1.15842 19.7339 1.22053L18.7902 1.44634C18.7902 1.44634 18.4448 1.40638 18.3389 1.49923C18.2704 1.55782 18.1944 1.607 18.1129 1.64546C18.1129 1.64546 12.3236 3.6773 11.301 4.1019C10.2783 4.5265 8.84454 5.08458 8.23324 5.50968C7.62194 5.93479 5.80367 8.40449 5.33979 9.41455C4.91078 10.3433 0.86614 18.4831 0.0541857 20.1665Z" fill="url(#paint0_linear_26:66)"/>
<path d="M0.0440415 20.1665C0.00413585 20.2492 -0.0090207 20.3423 0.00639838 20.4328C0.0218175 20.5233 0.0650469 20.6068 0.130083 20.6717C0.442871 20.993 0.782611 21.287 1.14558 21.5504C1.65044 21.8824 3.36311 22.7986 3.77495 23.038C4.18679 23.2774 6.56365 24.4852 6.94863 24.6182C7.47089 24.791 8.00916 24.911 8.55536 24.9765C9.0864 25.0297 9.65741 24.8173 9.65741 24.7641C9.65741 24.7109 10.8793 22.4539 10.9587 21.8426C11.0706 21.2608 11.2261 20.6882 11.424 20.1297C11.424 20.1297 11.4634 20.4358 11.5167 20.9262C11.5699 21.4166 11.5428 22.1213 11.5695 22.387C11.5962 22.6528 12.0877 31.8549 12.0744 32.2135C12.0611 32.5721 12.207 33.6607 12.207 33.6607C12.207 33.6607 12.0079 39.7692 12.0611 40.0213C12.1144 40.2735 12.0877 40.3274 12.0479 40.6721C12.0081 41.0168 11.8751 43.8458 11.8355 44.2841C11.7959 44.7225 11.4769 48.7326 11.3838 49.8478C11.2908 50.9629 11.4238 52.0255 11.3041 52.6495C11.1844 53.2736 11.1582 53.7652 11.4371 53.9776C11.7159 54.19 13.1897 54.4692 13.9069 54.5086C14.6242 54.5481 16.8682 54.6814 17.2796 54.6947C17.6909 54.7079 19.2181 54.9203 19.7231 54.8938C20.2281 54.8673 28.0091 54.907 29.4165 55.0128C30.824 55.1186 34.1039 55.1454 35.2594 54.9463C36.4148 54.7472 38.4863 54.2292 38.4863 53.9371C38.4863 53.645 38.3135 50.2982 38.3135 48.7454C38.3135 47.1925 37.9416 43.8719 37.9284 42.6769C37.9151 41.4818 37.5964 36.3828 37.5964 35.732C37.5964 35.0812 37.8357 32.5983 37.862 30.7654C37.8884 28.9325 38.1413 21.4571 38.3004 21.1517C38.4596 20.8463 38.5526 20.8592 38.6723 21.2576C38.792 21.656 38.9784 22.3865 39.2431 22.7185C39.5079 23.0504 39.7745 23.4752 40.1061 23.98C40.21 24.2341 40.4938 24.5961 40.5445 24.7102C40.6417 24.9292 43.6649 24.02 44.4752 23.6481C45.2854 23.2762 47.5019 22.3728 48.2331 21.9084C48.9643 21.444 50.092 20.5671 50.1585 20.2617C50.1933 20.15 50.2113 20.0337 50.2117 19.9167L49.6538 19.0665C49.6538 19.0665 49.7468 19.1329 49.6139 18.894C49.5494 18.7661 49.459 18.653 49.3483 18.5621L49.2024 18.0573L45.3914 9.86425C45.3914 9.86425 44.7673 8.85505 44.5944 8.5097C44.4869 8.26232 44.3966 8.00785 44.324 7.74807C44.1943 7.31722 43.9522 6.92868 43.6226 6.62239C43.2272 6.24465 42.7916 5.91137 42.3236 5.62849C41.3942 5.09711 38.6589 4.00849 36.5209 3.2115C34.383 2.41451 30.957 1.31264 30.957 1.31264L30.0408 0.980713C30.0408 0.980713 28.9783 1.59151 28.1951 1.80423C27.4119 2.01695 25.8181 2.44121 24.5963 2.37523C23.3746 2.30926 21.8345 2.37523 20.2011 1.17983C20.0415 1.14375 19.8746 1.1577 19.7233 1.21979L18.7805 1.44578C18.7805 1.44578 18.4352 1.40582 18.3289 1.49866C18.2605 1.55721 18.1846 1.60639 18.1033 1.6449C18.1033 1.6449 12.3136 3.67674 11.291 4.10134C10.2684 4.52593 8.83457 5.08401 8.22378 5.50912C7.61298 5.93423 5.7937 8.40444 5.32863 9.41449C4.90029 10.3433 0.855995 18.483 0.0440415 20.1665Z" fill="url(#paint1_linear_26:66)"/>
<path d="M0.0904577 20.0699C0.0345066 20.1855 0.0163218 20.3158 0.0384765 20.4423C0.0606313 20.5688 0.122004 20.6851 0.213909 20.7748C0.499722 21.0632 0.809143 21.3273 1.13894 21.5643C1.64346 21.8962 3.35647 22.8124 3.76797 23.0515C4.17947 23.2905 6.55684 24.4989 6.94165 24.6318C7.4639 24.8047 8.00217 24.9249 8.54838 24.9905C9.07943 25.0437 9.65077 24.831 9.65077 24.7781C9.65077 24.7252 10.8724 22.4674 10.9521 21.8566C11.0046 21.5316 11.0798 21.2108 11.1771 20.8963C11.1887 20.8593 11.2126 20.8274 11.2449 20.8059C11.2771 20.7844 11.3157 20.7745 11.3544 20.7779C11.393 20.7814 11.4293 20.7979 11.4572 20.8248C11.4852 20.8517 11.5031 20.8873 11.508 20.9258L11.5097 20.9404C11.5629 21.4315 11.5362 22.1354 11.5629 22.4009C11.5896 22.6663 12.0807 31.8687 12.0674 32.2273C12.0869 32.7072 12.1306 33.1858 12.1985 33.6613C12.1995 33.6702 12.1999 33.6792 12.1995 33.6881C12.1893 34.0051 12.0023 39.79 12.054 40.0352C12.1072 40.2877 12.0805 40.3412 12.0407 40.6859C12.0009 41.0306 11.8683 43.8596 11.8283 44.298C11.7884 44.7363 11.4697 48.7464 11.3767 49.8616C11.2837 50.9767 11.4167 52.0397 11.297 52.6637C11.1772 53.2878 11.1511 53.779 11.4299 53.9918C11.7088 54.2045 13.1829 54.4828 13.8998 54.5228C14.6167 54.5628 16.8611 54.6952 17.2729 54.7085C17.6848 54.7218 19.2114 54.9341 19.7161 54.9079C20.2208 54.8818 28.0021 54.9212 29.4096 55.027C30.817 55.1327 34.0973 55.16 35.2524 54.9605C36.4075 54.761 38.4793 54.2438 38.4793 53.9516C38.4793 53.6595 38.3065 50.3127 38.3065 48.7594C38.3065 47.206 37.935 43.8859 37.9217 42.6909C37.9085 41.4958 37.5898 36.3968 37.5898 35.746C37.5898 35.0952 37.8287 32.6123 37.8552 30.7797C37.8818 28.9472 38.1341 21.4711 38.2933 21.1657C38.4524 20.8603 38.5458 20.8736 38.6652 21.272C38.7845 21.6704 38.9712 22.4005 39.2362 22.7325C39.4999 23.0617 39.7633 23.4825 40.0915 23.9821C40.0967 23.99 40.1011 23.9983 40.1047 24.0069C40.2129 24.2603 40.4878 24.6121 40.5375 24.7245C40.6348 24.9432 43.658 24.034 44.4682 23.6621C45.2785 23.2902 47.495 22.3868 48.2262 21.9227C48.9573 21.4587 50.0852 20.5814 50.1515 20.276C50.1827 20.1318 50.1963 20.0473 50.2026 19.9975C50.2071 19.9584 50.1977 19.9189 50.176 19.886L49.7069 19.1709C49.6888 19.1414 49.6792 19.1076 49.6792 19.073C49.6653 19.0143 49.6411 18.9585 49.6077 18.9082C49.5478 18.7953 49.4698 18.6929 49.3768 18.6052C49.3538 18.5845 49.337 18.5578 49.3282 18.5282L49.1995 18.0838C49.1973 18.0755 49.1943 18.0674 49.1905 18.0597L45.3892 9.88727C45.3865 9.88142 45.3835 9.87575 45.3801 9.87026C45.3203 9.77402 44.7518 8.8512 44.5884 8.52404C44.4861 8.29099 44.4002 8.05111 44.3313 7.80612C44.1931 7.34642 43.9348 6.93186 43.5831 6.6051C43.1972 6.23982 42.7731 5.91705 42.3182 5.64232C41.3887 5.11128 38.6531 4.02233 36.5151 3.22534C34.3772 2.42835 30.9515 1.32647 30.9515 1.32647L30.1081 1.02039C30.0853 1.01209 30.0609 1.00883 30.0367 1.01082C30.0125 1.01282 29.989 1.02003 29.9678 1.03195C29.4034 1.35385 28.8074 1.61704 28.1893 1.81738C27.4061 2.02977 25.8127 2.4547 24.5911 2.38839C23.3761 2.32224 21.8459 2.38839 20.2227 1.21288C20.205 1.19961 20.1847 1.19017 20.1632 1.18516C20.0166 1.15911 19.8658 1.17424 19.7273 1.22886C19.7199 1.23188 19.7123 1.23432 19.7045 1.23618L18.8033 1.45196C18.7856 1.45617 18.7673 1.4576 18.7491 1.45621C18.6669 1.44924 18.4122 1.43445 18.324 1.51181C18.2583 1.56805 18.1856 1.61565 18.1078 1.65346C18.1023 1.65608 18.0966 1.65841 18.0908 1.66043C17.8528 1.74409 12.2871 3.69856 11.2866 4.11449C10.2641 4.53959 8.8298 5.09717 8.21884 5.52193C7.60788 5.9467 5.78893 8.41674 5.32403 9.42611C4.90216 10.3381 1.01158 18.1702 0.0904577 20.0699Z" fill="url(#paint2_linear_26:66)"/>
<path d="M19.6629 1.86383C19.6629 1.86383 21.6812 3.59826 24.9038 3.10327C26.9643 2.76625 28.9824 2.20818 30.9233 1.43872C30.9233 1.43872 31.419 7.31693 25.0808 7.49394C18.7427 7.67096 19.6629 1.86383 19.6629 1.86383Z" fill="url(#paint3_linear_26:66)"/>
<path d="M19.2732 2.12928C19.2732 2.12928 20.1586 3.59896 24.8152 3.59896C29.4718 3.59896 30.888 1.9169 30.888 1.9169L30.0377 0.695312C30.0377 0.695312 28.5502 2.07606 25.2839 2.10275C24.1152 2.1825 22.0701 2.27552 20.1183 0.881168L19.2732 2.12928Z" fill="url(#paint4_radial_26:66)"/>
<path d="M18.3528 1.35015C18.2112 2.58772 18.4786 3.83761 19.114 4.90897C20.1765 6.67946 21.8585 8.39672 24.9922 8.39672C28.6837 8.39672 31.0118 6.0066 31.5964 3.8644C32.0036 2.19985 31.4722 1.26172 31.4722 1.26172L30.0383 0.695312C30.0383 0.695312 30.2374 1.23945 30.3037 1.51849C30.3037 1.51849 30.5958 6.85647 25.0055 6.85647C23.2126 6.85647 20.6364 5.40924 20.1453 3.65627C19.6543 1.9033 20.1719 0.920958 20.1719 0.920958L20.0656 0.867736C20.0656 0.867736 18.4192 1.11583 18.3528 1.35015Z" fill="url(#paint5_radial_26:66)"/>
<path d="M11.5006 19.498C11.5006 19.498 11.5538 16.8964 11.5006 15.5144C11.4474 14.1325 10.9696 12.4338 10.9696 12.4338L9.69425 11.3181C10.2618 11.766 10.6408 12.4103 10.7567 13.124C10.9691 14.3459 11.0223 16.6296 11.0223 16.6296L11.1814 17.3733C11.1814 17.3733 9.90613 15.8861 9.32237 14.9302C8.73861 13.9742 7.94128 12.0087 7.94128 12.0087C7.94128 12.0087 8.73827 14.2395 9.00371 14.7174C9.53963 15.5444 10.125 16.3381 10.7567 17.0945C11.0628 17.4264 11.4647 17.7983 11.4647 17.7983L11.4477 18.0991C11.4477 18.0991 11.1337 18.0726 11.1024 18.1656C11.0711 18.2586 11.3724 18.2586 11.4654 18.2275C11.4736 18.4094 11.5006 19.498 11.5006 19.498Z" fill="#C3CFDA"/>
<path style="mix-blend-mode:multiply" opacity="0.3" d="M6.18915 12.3274C7.25158 12.3274 6.72019 16.8424 6.77342 18.4359C6.82664 20.0294 6.40153 21.2515 6.56103 21.9415C6.72053 22.6315 8.41994 23.8531 8.41994 23.8531C8.41994 23.8531 8.89776 24.2782 9.37609 24.0655C9.85442 23.8528 10.4914 22.2064 10.4914 21.5691C10.4914 20.9318 8.20773 20.9318 7.995 19.8161C7.78228 18.7005 6.87969 11.4772 7.03885 10.3617C7.46396 12.5395 9.11048 18.2228 9.90713 18.701C10.7038 19.1791 10.9696 17.9572 10.5445 17.4794C10.1193 17.0016 7.83567 11.6366 7.7294 10.291C8.01269 10.0429 8.4378 9.4408 8.01269 8.83919C7.58758 8.23757 6.80862 7.24572 6.52549 7.56387C6.24237 7.88202 2.59479 15.1063 2.59479 15.1063C2.59479 15.1063 5.888 8.48431 6.41905 8.59075C6.95009 8.6972 0.788934 19.0366 0.788934 19.0366C0.788934 19.0366 0.611919 19.4264 0.89487 19.6034C1.17782 19.7804 2.55942 20.6301 2.55942 20.6301C2.55942 20.6301 5.12672 12.3274 6.18915 12.3274Z" fill="url(#paint6_linear_26:66)"/>
<path opacity="0.3" d="M18.2061 1.43872C18.2061 1.43872 17.9276 4.62566 18.6182 5.95369C19.3087 7.28173 17.609 15.4081 14.6342 16.3112C11.6595 17.2143 11.2349 12.4342 11.2349 12.4342C11.2349 12.4342 8.89835 11.2119 8.6324 10.0966C8.36646 8.98131 7.80055 7.58236 6.70276 7.38784C6.73813 7.01595 7.81807 5.6534 8.43719 5.2453C9.05632 4.83719 18.2061 1.43872 18.2061 1.43872Z" fill="url(#paint7_linear_26:66)"/>
<path opacity="0.3" d="M19.3204 34.6373C17.0929 34.5198 13.505 44.2957 12.7874 46.8317C12.0698 49.3677 11.7518 53.6533 11.7518 53.6533C12.1996 53.9872 12.7323 54.1884 13.289 54.234C14.1732 54.2879 16.9011 54.1 18.0341 54.3148C19.167 54.5296 19.8399 54.6367 20.3002 54.5019C20.7605 54.367 19.4859 44.1182 19.7688 41.1662C20.0518 38.2143 21.173 34.7349 19.3204 34.6373Z" fill="url(#paint8_linear_26:66)"/>
<path opacity="0.6" d="M38.4166 20.6932C38.4166 20.6932 38.7975 19.5646 38.6206 18.6086C38.4438 17.6526 36.3545 15.28 36.3545 15.0676C37.5586 15.4927 39.0104 17.9713 39.0104 17.9713C39.0104 17.9713 39.2406 18.2102 39.3071 18.184C39.3736 18.1578 40.0238 17.1881 39.9973 16.2848C39.9708 15.3815 41.0332 15.5016 41.113 16.338C41.1927 17.1745 39.5727 18.5555 39.4125 19.4717C39.294 20.1118 39.1434 20.7456 38.9612 21.3706C38.8927 21.1061 38.8084 20.8459 38.7087 20.5915C38.6336 20.4634 38.5542 20.4988 38.5542 20.4988L38.4166 20.6932Z" fill="#C3CFDA"/>
<path style="mix-blend-mode:multiply" opacity="0.5" d="M44.2731 7.41431C44.2731 7.41431 44.5757 12.0944 40.8311 14.803C41.5481 14.8828 43.6623 11.8761 44.1401 10.2559C44.2198 10.548 42.9023 16.1564 43.2219 17.5118C43.2219 17.5118 44.2578 14.7231 44.4169 12.652C44.5761 10.5808 44.4331 10.2294 44.4331 10.2294C44.781 11.0097 44.985 11.8466 45.0352 12.6996C45.1415 14.1868 45.2654 16.0989 45.7965 16.2227C46.3275 16.3465 45.4603 11.4069 45.1947 10.5747C44.9291 9.74253 44.8049 9.35313 44.8049 9.35313C45.1489 9.83232 45.468 10.3288 45.7611 10.8407C45.8276 10.7216 45.4157 9.51263 45.1103 9.0877C44.8049 8.66276 44.3936 7.61394 44.3936 7.61394C44.3936 7.61394 44.3926 7.41431 44.2731 7.41431Z" fill="url(#paint9_linear_26:66)"/>
<path opacity="0.7" d="M38.6693 20.7994C38.6739 20.6232 38.7193 20.4505 38.802 20.2949C38.9482 19.9828 39.006 20.4232 39.112 20.3746C39.2179 20.326 39.0409 19.9937 39.0543 19.6883C39.0678 19.3829 39.767 19.3482 39.8246 19.0202C39.8823 18.6922 39.4527 18.8475 39.4527 18.8475C39.4527 18.8475 40.2825 17.7123 40.349 16.9158C40.23 17.4468 38.8374 19.1974 38.6782 19.8128C38.6142 20.1122 38.5684 20.4153 38.5411 20.7203C38.568 20.7187 38.5948 20.7254 38.6177 20.7396C38.6407 20.7537 38.6587 20.7746 38.6693 20.7994Z" fill="url(#paint10_linear_26:66)"/>
<path style="mix-blend-mode:multiply" opacity="0.7" d="M11.4121 14.9656C11.4121 14.9656 11.7133 18.4887 11.5272 19.923C11.3281 19.6574 11.1378 19.9538 11.0137 20.016C10.9359 20.0373 10.8535 20.0342 10.7775 20.0072C10.7015 19.9803 10.6356 19.9307 10.5886 19.8652C10.7076 19.8742 10.8586 20.0114 11.0266 19.9009C11.1946 19.7904 11.1683 19.6528 11.3145 19.6309C11.4607 19.6089 11.5269 19.1131 11.3545 18.8805C11.182 18.6479 10.8297 18.7745 10.7636 18.5419C10.6974 18.3093 11.2814 18.303 11.3545 18.1638C11.4276 18.0245 11.3478 17.5856 11.3478 17.5856C11.3478 17.5856 10.3186 16.6228 9.82715 15.793C10.2722 16.3905 11.4272 17.453 11.4272 17.453C11.4272 17.453 11.2742 14.3259 11.0623 13.542C11.2414 13.999 11.359 14.4777 11.4121 14.9656Z" fill="url(#paint11_linear_26:66)"/>
<path opacity="0.2" d="M0.572266 19.3123C1.79228 20.1798 3.06032 20.9778 4.37034 21.7024C5.76082 22.4436 7.19273 23.1044 8.65899 23.6815C9.17711 23.8543 10.0268 23.7878 10.0268 23.7878" stroke="#707070" stroke-width="0.304" stroke-miterlimit="10" stroke-linecap="round"/>
<path style="mix-blend-mode:multiply" opacity="0.2" d="M11.412 14.9656C11.412 14.9656 12.1911 16.3907 13.5987 16.975C15.0064 17.5592 18.9102 16.4439 19.3086 16.7893C19.707 17.1346 15.4046 21.4102 14.6608 22.5257C13.9171 23.6412 13.6781 21.7641 12.8284 21.853C11.9787 21.9419 11.8371 22.9862 11.8371 22.9862L11.412 14.9656Z" fill="url(#paint12_linear_26:66)"/>
<path opacity="0.5" d="M38.4037 20.8259C38.4649 20.7749 37.8194 19.8433 37.1821 19.7377C36.5448 19.6321 36.3856 22.8183 36.3856 23.9335C36.3856 25.0486 36.4388 34.3707 35.8013 35.672C35.1639 36.9734 33.5173 36.894 33.1189 37.5842C32.7205 38.2744 33.1454 40.479 34.978 40.4524C36.8106 40.4259 36.8901 38.4342 37.262 38.1155C37.6339 37.7969 37.7398 37.292 37.4744 36.9468C37.209 36.6017 38.1376 29.0592 38.1117 26.191C38.0859 23.3227 36.7839 22.1812 38.4037 20.8259Z" fill="url(#paint13_linear_26:66)"/>
<g opacity="0.5">
<path opacity="0.5" d="M42.3741 23.0393C42.303 22.9152 42.3911 22.2956 42.1439 22.0123C41.8966 21.729 41.1525 22.1361 40.4618 21.4455C39.7711 20.755 39.5057 18.8962 39.5057 18.8962C39.5057 18.8962 38.7503 19.2965 38.5289 20.7735C38.6259 20.6735 38.699 20.7565 38.7882 21.0517C38.9073 21.4501 39.0943 22.1806 39.3592 22.5125C39.623 22.8417 39.8864 23.2626 40.2146 23.7618C40.2198 23.7698 40.2242 23.7782 40.2278 23.787C40.336 24.0404 40.6109 24.3922 40.6606 24.5046C40.7327 24.6666 42.412 24.2094 43.6057 23.8101C43.2092 23.1757 42.4367 23.1492 42.3741 23.0393Z" fill="url(#paint14_linear_26:66)"/>
</g>
<g opacity="0.4">
<path opacity="0.4" d="M50.1663 20.2781C50.1974 20.1339 50.211 20.0489 50.2173 19.9996C50.2218 19.9604 50.2123 19.9209 50.1904 19.888L49.7213 19.173C49.7036 19.1434 49.694 19.1096 49.6936 19.075C49.6801 19.0162 49.6559 18.9604 49.6222 18.9103C49.5622 18.7975 49.4843 18.6951 49.3916 18.6073C49.3685 18.5866 49.3515 18.5599 49.3426 18.5302L49.2142 18.0859C49.2117 18.0777 49.2087 18.0696 49.2052 18.0618L45.4039 9.88933C45.4011 9.88348 45.3979 9.8778 45.3944 9.87233C45.3349 9.77574 44.7664 8.85292 44.6027 8.5261C44.5128 8.32451 44.4365 8.1171 44.3745 7.90527C44.3513 8.34815 44.3741 8.79224 44.4425 9.23042C44.6552 10.6115 46.6471 14.967 46.9921 16.2948C47.3371 17.6227 46.4876 18.0213 46.8595 18.7912C47.2314 19.5612 48.0545 19.4544 48.0811 19.8271C48.101 20.1084 47.4835 21.3915 47.3766 22.3802C47.6725 22.2442 47.9608 22.0923 48.2402 21.925C48.9709 21.4599 50.0998 20.5835 50.1663 20.2781Z" fill="url(#paint15_linear_26:66)"/>
</g>
<path opacity="0.2" d="M40.369 23.6941C40.369 23.6941 41.0063 23.8798 42.9984 22.977C44.9904 22.0742 47.8851 20.5338 48.7615 20.1087C49.6379 19.6836 49.8236 19.0466 49.8236 19.0466" stroke="#707070" stroke-width="0.304" stroke-miterlimit="10" stroke-linecap="round"/>
<path opacity="0.2" d="M21.4333 24.8627C21.4333 24.8627 20.6363 32.3522 20.6363 35.5392C20.6363 38.7261 20.2647 38.1947 22.5484 40.8506C24.8321 43.5065 28.5509 46.3748 32.3748 45.5247C36.1988 44.6747 32.0086 44.0491 30.4627 42.3378C27.4885 39.0448 28.2319 39.5758 25.895 35.0079C24.4362 32.1568 25.9483 27.8374 25.2577 25.2347C24.5672 22.6321 23.08 20.5074 21.4333 24.8627Z" fill="url(#paint16_linear_26:66)"/>
<path opacity="0.3" d="M27.8605 25.1286C27.8605 25.1286 28.4447 31.343 29.9318 34.583C31.4188 37.823 33.0655 38.9383 34.2338 39.3634C35.4022 39.7885 35.9332 38.832 35.6678 38.0354C35.4024 37.2387 32.6411 35.8577 32.6411 32.1926C32.6411 28.5275 31.5785 24.0662 27.8605 25.1286Z" fill="url(#paint17_linear_26:66)"/>
<path opacity="0.2" d="M17.609 42.3376C17.609 42.3376 16.5112 44.8519 16.7236 46.4453C16.9359 48.0388 19.3441 49.7385 22.1415 49.5615C24.9388 49.3845 27.2053 48.7113 27.0283 48.1097C26.8513 47.5081 22.8147 45.2414 21.859 43.6833C20.9034 42.1252 18.8838 39.5758 17.609 42.3376Z" fill="url(#paint18_linear_26:66)"/>
<path style="mix-blend-mode:multiply" opacity="0.5" d="M11.545 18.396C11.545 18.396 10.4386 18.0814 10.0667 19.0376C9.69479 19.9937 9.90717 20.9497 9.35828 21.7467C8.80938 22.5437 6.37488 24.0933 6.37488 24.0933C6.65494 24.2538 6.95188 24.383 7.26029 24.4784C7.63642 24.5711 8.42457 24.8238 8.95562 24.7614C9.22795 24.739 9.49522 24.6748 9.74801 24.5711C9.74801 24.5711 10.8193 22.3933 10.9477 22.0261C11.0163 21.8726 11.0539 21.7071 11.0582 21.5391L11.5228 19.9056L11.545 18.396Z" fill="url(#paint19_linear_26:66)"/>
<path opacity="0.5" d="M19.9645 2.69599C19.9645 2.69599 21.2925 3.63429 25.1521 3.58022C29.0118 3.52614 30.216 2.53564 30.216 2.53564" stroke="#B5C4C7" stroke-width="0.304" stroke-miterlimit="10"/>
<path opacity="0.4" d="M18.6711 3.93506C18.6711 3.93506 19.9721 8.37028 24.9918 8.39681C30.0115 8.42334 31.5248 4.14778 31.5248 4.14778" stroke="#B5C4C7" stroke-width="0.304" stroke-miterlimit="10"/>
<path style="mix-blend-mode:multiply" opacity="0.2" d="M38.5098 20.109L38.8817 18.6218C38.8817 18.6218 37.2085 15.5146 36.093 14.6382C36.2522 13.55 38.7751 16.2846 39.2534 16.9484C39.7318 17.6123 39.5721 18.5419 39.5721 18.5419L38.5098 20.109Z" fill="url(#paint20_linear_26:66)"/>
<path opacity="0.7" d="M7.80925 8.83521C8.02164 9.28684 7.43737 9.88437 7.71624 10.7473C7.99511 11.6103 8.83189 13.4294 8.68548 13.5891C8.53908 13.7488 7.70298 10.5224 7.25168 10.3489C6.80039 10.1755 6.62763 10.5084 6.78679 11.4114C6.94595 12.3143 7.68971 15.1958 7.57034 15.6075C7.45097 16.0192 7.03896 15.7002 6.93302 14.2397C6.82709 12.7792 6.32223 11.2252 6.2957 10.8138C6.26918 10.4025 5.97704 10.9995 5.84407 10.6411C5.7111 10.2826 6.98591 9.15387 7.01243 8.56977C7.03896 7.98568 7.80925 8.83521 7.80925 8.83521Z" fill="url(#paint21_linear_26:66)"/>
<path style="mix-blend-mode:multiply" opacity="0.2" d="M39.8247 17.772C39.8247 17.772 39.9971 16.6431 40.263 16.152C40.529 15.6609 40.834 16.1785 41.4448 16.3112C42.0556 16.4438 42.3345 16.6565 42.1883 17.1081C42.042 17.5598 41.4981 17.4142 40.8208 17.9181C40.1435 18.4219 38.789 20.4145 38.8156 21.198C38.7136 20.9384 38.6294 20.6721 38.5635 20.401C38.5635 20.401 39.6517 18.8473 39.8247 17.772Z" fill="url(#paint22_linear_26:66)"/>
<path opacity="0.5" d="M10.1372 11.7784C10.1372 11.7784 10.9875 13.177 11.0934 14.3631C11.1993 15.5491 11.3058 16.8241 11.1997 16.9477C11.0936 17.0713 9.30505 14.8586 8.93351 13.7079C8.56196 12.5572 8.26048 11.4414 8.03024 11.5654C7.8 11.6893 8.36675 13.495 8.96888 14.5751C9.571 15.6552 11.0182 17.3723 11.4275 17.4521C11.8368 17.5318 11.3415 12.9992 11.0403 12.6098C10.7709 12.3002 10.468 12.0214 10.1372 11.7784Z" fill="url(#paint23_linear_26:66)"/>
<g opacity="0.8">
<path opacity="0.8" d="M15.2565 52.9477C14.1412 52.3104 15.4692 51.5134 13.8225 49.7075C12.1758 47.9017 14.0349 43.4399 14.3003 42.2183C14.5658 40.9968 14.6722 40.6249 13.6101 39.0314C12.548 37.4379 14.0879 28.3549 14.4603 26.0709C14.8327 23.7869 14.8854 22.8843 13.8761 21.8219C12.8667 20.7595 12.6007 18.7412 12.6007 18.7412L11.6267 16.8997L11.5026 20.5411C11.5419 20.5438 11.579 20.5605 11.607 20.5882C11.6351 20.6159 11.6524 20.6527 11.6556 20.692L11.6573 20.7062C11.7106 21.1978 11.6839 21.9016 11.7106 22.1671C11.7373 22.4325 12.2283 31.6349 12.2151 31.9935C12.2346 32.4734 12.2783 32.952 12.3462 33.4275C12.3472 33.4364 12.3476 33.4454 12.3472 33.4543C12.337 33.7713 12.15 39.5561 12.2016 39.8014C12.2549 40.0539 12.2282 40.1074 12.1884 40.4521C12.1486 40.7968 12.016 43.6258 11.976 44.0642C11.936 44.5025 11.6174 48.5126 11.5244 49.6278C11.4314 50.7429 11.5643 51.8055 11.4446 52.4296C11.3249 53.0536 11.2987 53.5452 11.5776 53.7576C11.8565 53.97 13.3306 54.2492 14.0475 54.289C14.4515 54.3114 15.3398 54.3631 16.1131 54.4068C16.0562 53.9081 15.8557 53.2903 15.2565 52.9477Z" fill="url(#paint24_linear_26:66)"/>
</g>
<path opacity="0.2" d="M37.2264 45.5957C37.2264 45.5957 38.5357 51.4382 36.9783 52.6776C35.4209 53.9171 30.215 53.5631 26.8865 53.4214C23.5579 53.2798 22.0707 53.1028 21.8937 51.9696C21.7166 50.8364 22.6017 50.5531 23.6281 50.4115C24.6545 50.2698 25.1859 51.6509 27.7355 51.8279C30.2851 52.005 31.2768 50.0217 32.8345 48.11C34.3923 46.1982 37.2264 45.5957 37.2264 45.5957Z" fill="url(#paint25_linear_26:66)"/>
<path style="mix-blend-mode:multiply" opacity="0.5" d="M40.1166 16.9219C40.0747 17.2649 39.9991 17.6029 39.8909 17.9311C39.7646 18.1967 39.2669 18.8012 38.9814 19.186C38.6959 19.5708 38.4898 20.4208 38.5962 20.7262C38.6227 20.4275 38.583 19.724 39.0342 19.3786C39.4855 19.0333 39.5723 19.0333 39.5723 19.0333L39.0941 19.2123C39.0941 19.2123 39.9103 18.2431 40.0103 17.9642C40.1103 17.6854 40.1166 16.9219 40.1166 16.9219Z" fill="url(#paint26_linear_26:66)"/>
<g style="mix-blend-mode:multiply" opacity="0.5">
<path d="M11.4832 52.8545C11.4832 52.8545 11.9083 53.3859 15.8033 53.7047C19.6983 54.0235 23.9823 53.9876 25.0808 54.0587C26.1793 54.1298 29.7549 54.2004 31.3484 54.2711C32.9419 54.3418 37.1203 53.9524 38.2533 53.2798" stroke="#707070" stroke-width="0.152" stroke-miterlimit="10"/>
</g>
</g>
<defs>
<linearGradient id="paint0_linear_26:66" x1="0.010376" y1="28.0379" x2="50.2221" y2="28.0379" gradientUnits="userSpaceOnUse">
<stop stop-color="#B8C2CC"/>
<stop offset="0.077" stop-color="#C7CFD7"/>
<stop offset="0.187" stop-color="#D6DCE1"/>
<stop offset="0.317" stop-color="#DFE3E8"/>
<stop offset="0.514" stop-color="#E2E6EA"/>
<stop offset="0.774" stop-color="#E0E4E8"/>
<stop offset="0.868" stop-color="#D9DEE3"/>
<stop offset="0.934" stop-color="#CDD4DB"/>
<stop offset="0.988" stop-color="#BCC6CF"/>
<stop offset="1" stop-color="#B8C2CC"/>
</linearGradient>
<linearGradient id="paint1_linear_26:66" x1="25.1059" y1="55.0944" x2="25.1059" y2="0.980713" gradientUnits="userSpaceOnUse">
<stop stop-color="#B8C2CC"/>
<stop offset="0.006" stop-color="#B9C3CC" stop-opacity="0.969"/>
<stop offset="0.052" stop-color="#C1CAD2" stop-opacity="0.769"/>
<stop offset="0.103" stop-color="#C9D0D8" stop-opacity="0.584"/>
<stop offset="0.158" stop-color="#D0D6DD" stop-opacity="0.424"/>
<stop offset="0.22" stop-color="#D5DBE1" stop-opacity="0.29"/>
<stop offset="0.289" stop-color="#DADFE4" stop-opacity="0.184"/>
<stop offset="0.37" stop-color="#DDE2E6" stop-opacity="0.102"/>
<stop offset="0.47" stop-color="#E0E4E8" stop-opacity="0.043"/>
<stop offset="0.61" stop-color="#E1E5E9" stop-opacity="0.01"/>
<stop offset="1" stop-color="#E2E6EA" stop-opacity="0"/>
</linearGradient>
<linearGradient id="paint2_linear_26:66" x1="25.1165" y1="33.6316" x2="25.1165" y2="-34.316" gradientUnits="userSpaceOnUse">
<stop stop-color="white" stop-opacity="0"/>
<stop offset="0.007" stop-color="white" stop-opacity="0.035"/>
<stop offset="0.048" stop-color="white" stop-opacity="0.216"/>
<stop offset="0.093" stop-color="white" stop-opacity="0.384"/>
<stop offset="0.142" stop-color="white" stop-opacity="0.533"/>
<stop offset="0.195" stop-color="white" stop-opacity="0.659"/>
<stop offset="0.254" stop-color="white" stop-opacity="0.769"/>
<stop offset="0.32" stop-color="white" stop-opacity="0.855"/>
<stop offset="0.397" stop-color="white" stop-opacity="0.922"/>
<stop offset="0.493" stop-color="white" stop-opacity="0.965"/>
<stop offset="0.627" stop-color="white" stop-opacity="0.992"/>
<stop offset="1" stop-color="white"/>
</linearGradient>
<linearGradient id="paint3_linear_26:66" x1="19.6163" y1="4.46831" x2="30.9324" y2="4.46831" gradientUnits="userSpaceOnUse">
<stop stop-color="#B0BCC7"/>
<stop offset="0.179" stop-color="#D3DAE0"/>
<stop offset="0.522" stop-color="#EEF1F5"/>
<stop offset="0.651" stop-color="#EBEEF2"/>
<stop offset="0.746" stop-color="#E1E6EB"/>
<stop offset="0.83" stop-color="#D1D9DF"/>
<stop offset="0.86" stop-color="#CAD3DA"/>
<stop offset="1" stop-color="#B0BCC7"/>
</linearGradient>
<radialGradient id="paint4_radial_26:66" cx="0" cy="0" r="1" gradientUnits="userSpaceOnUse" gradientTransform="translate(8.17273 -6.22433) rotate(-11.75) scale(7.20699 4.27374)">
<stop offset="0.022" stop-color="#EEF1F5"/>
<stop offset="0.304" stop-color="#EBEEF2"/>
<stop offset="0.392" stop-color="#E8ECF0"/>
<stop offset="0.521" stop-color="#E2E7EB"/>
<stop offset="0.687" stop-color="#D2D9DF"/>
<stop offset="0.871" stop-color="#B8C4CC"/>
<stop offset="1" stop-color="#A2B1BB"/>
</radialGradient>
<radialGradient id="paint5_radial_26:66" cx="0" cy="0" r="1" gradientUnits="userSpaceOnUse" gradientTransform="translate(15.0734 2.47434) scale(8.86785 8.87202)">
<stop stop-color="white"/>
<stop offset="1" stop-color="#DCE3E9"/>
</radialGradient>
<linearGradient id="paint6_linear_26:66" x1="6.0903" y1="5.84018" x2="4.77036" y2="23.1969" gradientUnits="userSpaceOnUse">
<stop stop-color="#C3CFDA"/>
<stop offset="1" stop-color="#C3CFDA" stop-opacity="0"/>
</linearGradient>
<linearGradient id="paint7_linear_26:66" x1="11.6026" y1="0.554546" x2="15.7792" y2="12.7816" gradientUnits="userSpaceOnUse">
<stop stop-color="#C3CFDA"/>
<stop offset="1" stop-color="#C3CFDA" stop-opacity="0"/>
</linearGradient>
<linearGradient id="paint8_linear_26:66" x1="13.352" y1="32.564" x2="24.6349" y2="42.1492" gradientUnits="userSpaceOnUse">
<stop stop-color="#C3CFDA"/>
<stop offset="1" stop-color="#C3CFDA" stop-opacity="0"/>
</linearGradient>
<linearGradient id="paint9_linear_26:66" x1="42.053" y1="7.73743" x2="47.9742" y2="13.9219" gradientUnits="userSpaceOnUse">
<stop stop-color="#C3CFDA"/>
<stop offset="1" stop-color="#C3CFDA" stop-opacity="0"/>
</linearGradient>
<linearGradient id="paint10_linear_26:66" x1="38.4941" y1="18.4925" x2="40.0939" y2="18.6172" gradientUnits="userSpaceOnUse">
<stop offset="0.195" stop-color="#7591A9"/>
<stop offset="1" stop-color="#B0C0CE" stop-opacity="0"/>
</linearGradient>
<linearGradient id="paint11_linear_26:66" x1="12.3133" y1="16.9547" x2="10.2228" y2="16.9351" gradientUnits="userSpaceOnUse">
<stop offset="0.195" stop-color="#7591A9"/>
<stop offset="1" stop-color="#B0C0CE" stop-opacity="0"/>
</linearGradient>
<linearGradient id="paint12_linear_26:66" x1="15.6189" y1="14.1234" x2="14.3285" y2="23.3428" gradientUnits="userSpaceOnUse">
<stop stop-color="#C3CFDA"/>
<stop offset="1" stop-color="#C3CFDA" stop-opacity="0"/>
</linearGradient>
<linearGradient id="paint13_linear_26:66" x1="32.9491" y1="17.2697" x2="41.8061" y2="20.0086" gradientUnits="userSpaceOnUse">
<stop stop-color="#C3CFDA"/>
<stop offset="1" stop-color="#C3CFDA" stop-opacity="0"/>
</linearGradient>
<linearGradient id="paint14_linear_26:66" x1="39.1331" y1="22.8794" x2="42.3114" y2="21.2554" gradientUnits="userSpaceOnUse">
<stop stop-color="#C3CFDA"/>
<stop offset="1" stop-color="#C3CFDA" stop-opacity="0"/>
</linearGradient>
<linearGradient id="paint15_linear_26:66" x1="50.0662" y1="14.9835" x2="44.4056" y2="15.019" gradientUnits="userSpaceOnUse">
<stop stop-color="#C3CFDA"/>
<stop offset="1" stop-color="#C3CFDA" stop-opacity="0"/>
</linearGradient>
<linearGradient id="paint16_linear_26:66" x1="27.2772" y1="45.677" x2="27.2772" y2="22.3594" gradientUnits="userSpaceOnUse">
<stop stop-color="white"/>
<stop offset="0.201" stop-color="white" stop-opacity="0.82"/>
<stop offset="0.653" stop-color="white" stop-opacity="0.365"/>
<stop offset="1" stop-color="white" stop-opacity="0"/>
</linearGradient>
<linearGradient id="paint17_linear_26:66" x1="31.7977" y1="39.468" x2="31.7977" y2="24.9692" gradientUnits="userSpaceOnUse">
<stop stop-color="white"/>
<stop offset="0.201" stop-color="white" stop-opacity="0.82"/>
<stop offset="0.653" stop-color="white" stop-opacity="0.365"/>
<stop offset="1" stop-color="white" stop-opacity="0"/>
</linearGradient>
<linearGradient id="paint18_linear_26:66" x1="21.8672" y1="49.5743" x2="21.8672" y2="41.1113" gradientUnits="userSpaceOnUse">
<stop stop-color="white"/>
<stop offset="0.201" stop-color="white" stop-opacity="0.82"/>
<stop offset="0.653" stop-color="white" stop-opacity="0.365"/>
<stop offset="1" stop-color="white" stop-opacity="0"/>
</linearGradient>
<linearGradient id="paint19_linear_26:66" x1="12.274" y1="22.3683" x2="6.94869" y2="21.2533" gradientUnits="userSpaceOnUse">
<stop stop-color="#C3CFDA"/>
<stop offset="1" stop-color="#C3CFDA" stop-opacity="0"/>
</linearGradient>
<linearGradient id="paint20_linear_26:66" x1="38.2309" y1="13.6755" x2="36.1082" y2="19.5057" gradientUnits="userSpaceOnUse">
<stop stop-color="#C3CFDA"/>
<stop offset="1" stop-color="#C3CFDA" stop-opacity="0"/>
</linearGradient>
<linearGradient id="paint21_linear_26:66" x1="7.93386" y1="7.16457" x2="3.15481" y2="12.419" gradientUnits="userSpaceOnUse">
<stop stop-color="#C3CFDA"/>
<stop offset="1" stop-color="#C3CFDA" stop-opacity="0"/>
</linearGradient>
<linearGradient id="paint22_linear_26:66" x1="40.8931" y1="15.02" x2="39.1746" y2="21.1377" gradientUnits="userSpaceOnUse">
<stop stop-color="#C3CFDA"/>
<stop offset="1" stop-color="#C3CFDA" stop-opacity="0"/>
</linearGradient>
<linearGradient id="paint23_linear_26:66" x1="10.2598" y1="10.8188" x2="8.11381" y2="16.7222" gradientUnits="userSpaceOnUse">
<stop stop-color="#C3CFDA"/>
<stop offset="1" stop-color="#C3CFDA" stop-opacity="0"/>
</linearGradient>
<linearGradient id="paint24_linear_26:66" x1="12.324" y1="35.5407" x2="15.1959" y2="35.5449" gradientUnits="userSpaceOnUse">
<stop stop-color="#C3CFDA"/>
<stop offset="1" stop-color="#C3CFDA" stop-opacity="0"/>
</linearGradient>
<linearGradient id="paint25_linear_26:66" x1="27.6636" y1="44.3823" x2="29.1084" y2="57.7782" gradientUnits="userSpaceOnUse">
<stop stop-color="white" stop-opacity="0"/>
<stop offset="0.347" stop-color="white" stop-opacity="0.365"/>
<stop offset="0.799" stop-color="white" stop-opacity="0.82"/>
<stop offset="1" stop-color="white"/>
</linearGradient>
<linearGradient id="paint26_linear_26:66" x1="38.2177" y1="16.1496" x2="41.738" y2="17.5188" gradientUnits="userSpaceOnUse">
<stop stop-color="#61819E"/>
<stop offset="1" stop-color="#C3CFDA" stop-opacity="0"/>
</linearGradient>
<clipPath id="clip0_26:66">
<rect width="50.2226" height="56" fill="white"/>
</clipPath>
</defs>
</svg>
