<svg width="19" height="20" viewBox="0 0 19 20" fill="none" xmlns="http://www.w3.org/2000/svg">
<path d="M15.172 6.00005L12.636 8.53605L14.05 9.95005L19 5.00005L14.05 0.0500488L12.636 1.46405L15.172 4.00005H8C5.87827 4.00005 3.84344 4.8429 2.34315 6.34319C0.842854 7.84349 0 9.87832 0 12C0 14.1218 0.842854 16.1566 2.34315 17.6569C3.84344 19.1572 5.87827 20 8 20H17V18H8C6.4087 18 4.88258 17.3679 3.75736 16.2427C2.63214 15.1175 2 13.5913 2 12C2 10.4087 2.63214 8.88263 3.75736 7.75741C4.88258 6.63219 6.4087 6.00005 8 6.00005H15.172Z" fill="#486581"/>
</svg>
