<svg width="24" height="56" viewBox="0 0 24 56" fill="none" xmlns="http://www.w3.org/2000/svg">
<g clip-path="url(#clip0_26:331)">
<path d="M5.74713 0.141159C5.74713 0.141159 5.47588 0.158659 5.0172 0.743859C4.5335 1.50756 4.40628 1.96606 3.515 3.21363C2.62373 4.46121 1.63078 6.95706 1.01985 9.04463C0.408928 11.1322 -0.202346 14.2647 0.103029 16.5817C0.408404 18.8987 0.637829 20.8342 0.688754 21.7253C0.739679 22.6164 0.663202 28.7778 1.01968 31.1977C1.37615 33.6176 1.50338 35.9337 1.50338 35.9337C1.50338 35.9337 1.3506 40.1353 1.52893 40.9501C1.70725 41.7649 1.70725 42.5799 1.52893 42.8599C1.3506 43.1399 1.29968 44.7441 1.07043 45.5082C0.841179 46.2722 0.637653 47.112 0.561178 48.9207C0.484703 50.7293 0.968752 53.8095 0.968752 53.8095C0.968752 53.8095 4.83905 55.9485 9.52433 55.9992C14.2096 56.05 20.0408 54.5735 20.0408 54.5735C20.0408 54.5735 23.0452 53.3762 23.0452 51.9749C23.0452 50.5737 22.3322 46.5513 22.4852 45.5836C22.6381 44.6158 22.8928 42.9862 22.9437 39.7526C22.9946 36.5189 22.4089 30.3567 22.2561 28.1415C22.1033 25.9264 21.4413 19.7387 21.4921 18.0326C21.5428 16.3266 21.6704 16.4538 20.9321 14.6712C20.1937 12.8887 16.6033 6.44623 16.3996 5.73398C16.399 5.46244 16.3193 5.19695 16.1703 4.96993C16.1703 4.96993 13.8789 3.44218 12.682 2.80571C11.4852 2.16923 9.95745 0.590384 8.7608 0.233209C7.77887 -0.0433641 6.74411 -0.0749703 5.74713 0.141159Z" fill="url(#paint0_linear_26:331)"/>
<path d="M5.75751 0.141189C5.75751 0.141189 5.48608 0.158689 5.02758 0.743889C4.54388 1.50759 4.41665 1.96609 3.52538 3.21366C2.6341 4.46124 1.64115 6.95709 1.03023 9.04467C0.419304 11.1322 -0.19197 14.2647 0.113405 16.5817C0.41878 18.8987 0.648205 20.8342 0.69913 21.7253C0.750055 22.6164 0.673581 28.7778 1.03006 31.1977C1.38653 33.6176 1.51375 35.9338 1.51375 35.9338C1.51375 35.9338 1.36098 40.1353 1.5393 40.9501C1.71763 41.7649 1.71763 42.5799 1.5393 42.8599C1.36098 43.1399 1.31005 44.7441 1.0808 45.5082C0.851555 46.2722 0.648029 47.1121 0.571554 48.9207C0.495079 50.7293 0.979131 53.8095 0.979131 53.8095C0.979131 53.8095 4.84925 55.9475 9.53523 55.9987C14.2212 56.05 20.0517 54.573 20.0517 54.573C20.0517 54.573 23.0563 53.3762 23.0563 51.9757C23.0563 50.5751 22.3433 46.5521 22.4963 45.5843C22.6492 44.6166 22.9038 42.987 22.9548 39.7533C23.0057 36.5197 22.42 30.3574 22.2672 28.1422C22.1144 25.9271 21.452 19.7394 21.5031 18.0334C21.5542 16.3273 21.6815 16.4545 20.9431 14.672C20.2048 12.8894 16.6147 6.44696 16.4106 5.73471C16.41 5.46317 16.3304 5.19768 16.1814 4.97066C16.1814 4.97066 13.8899 3.44291 12.6931 2.80644C11.4963 2.16996 9.96818 0.591114 8.77153 0.233939C7.78956 -0.0429878 6.75465 -0.0748346 5.75751 0.141189Z" fill="url(#paint1_linear_26:331)"/>
<path d="M5.74713 0.141159C5.74713 0.141159 5.47588 0.158659 5.0172 0.743859C4.5335 1.50756 4.40628 1.96606 3.515 3.21363C2.62373 4.46121 1.63078 6.95706 1.01985 9.04463C0.408928 11.1322 -0.202346 14.2647 0.103029 16.5817C0.408404 18.8987 0.637829 20.8342 0.688754 21.7253C0.739679 22.6164 0.663202 28.7778 1.01968 31.1977C1.37615 33.6176 1.50338 35.9337 1.50338 35.9337C1.50338 35.9337 1.3506 40.1353 1.52893 40.9501C1.70725 41.7649 1.70725 42.5799 1.52893 42.8599C1.3506 43.1399 1.29968 44.7441 1.07043 45.5082C0.841179 46.2722 0.637653 47.112 0.561178 48.9207C0.484703 50.7293 0.968752 53.8095 0.968752 53.8095C0.968752 53.8095 4.83905 55.9485 9.52433 55.9992C14.2096 56.05 20.0408 54.5735 20.0408 54.5735C20.0408 54.5735 23.0452 53.3762 23.0452 51.9749C23.0452 50.5737 22.3322 46.5513 22.4852 45.5836C22.6381 44.6158 22.8928 42.9862 22.9437 39.7526C22.9946 36.5189 22.4089 30.3567 22.2561 28.1415C22.1033 25.9264 21.4413 19.7387 21.4921 18.0326C21.5428 16.3266 21.6704 16.4538 20.9321 14.6712C20.1937 12.8887 16.6033 6.44623 16.3996 5.73398C16.399 5.46244 16.3193 5.19695 16.1703 4.96993C16.1703 4.96993 13.8789 3.44218 12.682 2.80571C11.4852 2.16923 9.95745 0.590384 8.7608 0.233209C7.77887 -0.0433641 6.74411 -0.0749703 5.74713 0.141159Z" fill="url(#paint2_linear_26:331)"/>
<path opacity="0.5" d="M5.72552 0.141158C5.72552 0.141158 5.45375 0.158658 4.9956 0.743858C4.5119 1.50756 4.38467 1.96606 3.4934 3.21363C2.60212 4.46121 1.60917 6.95706 0.998247 9.04463C0.387322 11.1322 -0.223953 14.2647 0.0814221 16.5817C0.386797 18.8987 0.616222 20.8342 0.666797 21.7253C0.717372 22.6164 0.641598 28.7778 0.998073 31.1977C1.35455 33.6176 1.48177 35.9337 1.48177 35.9337C1.48177 35.9337 1.329 40.1353 1.50732 40.9501C1.68565 41.7649 1.6853 42.5799 1.50732 42.8599C1.32935 43.1399 1.27807 44.7441 1.04882 45.5081C0.819572 46.2722 0.616049 47.112 0.539574 48.9206C0.463099 50.7293 0.947148 53.8094 0.947148 53.8094C0.947148 53.8094 4.81745 55.9485 9.50272 55.9992C14.188 56.05 20.0192 54.5735 20.0192 54.5735C20.0192 54.5735 23.0236 53.3761 23.0236 51.9749C23.0236 50.5737 22.3106 46.5513 22.4636 45.5836C22.6165 44.6158 22.8711 42.9862 22.9221 39.7526C22.973 36.5189 22.3873 30.3566 22.2345 28.1415C22.0817 25.9263 21.4193 19.7387 21.4704 18.0326C21.5215 16.3266 21.6488 16.4538 20.9104 14.6712C20.1721 12.8887 16.582 6.44623 16.3779 5.73398C16.3774 5.46244 16.2977 5.19694 16.1487 4.96993C16.1487 4.96993 13.8562 3.44218 12.6601 2.80571C11.4639 2.16923 9.9355 0.590383 8.73885 0.233208C7.75703 -0.0433637 6.72238 -0.07497 5.72552 0.141158Z" fill="url(#paint3_linear_26:331)"/>
<path style="mix-blend-mode:multiply" d="M1.76405 14.8008C1.57914 15.9029 1.5146 17.0219 1.57155 18.138C1.64837 20.1505 2.69155 22.2155 2.8067 23.4174C2.92185 24.6193 3.1154 25.5946 3.1154 25.5946C4.48234 25.5729 5.84924 25.6402 7.20743 25.7962C9.25335 26.0496 13.4995 26.372 13.6926 25.683C13.8856 24.994 13.538 24.4076 13.5001 24.3005C13.4621 24.1934 14.5039 18.0759 14.7741 16.9892C14.9501 16.2215 15.0662 15.4414 15.1213 14.6557C15.1213 14.6557 9.05997 10.0343 6.01007 9.62307C2.96017 9.21182 4.19602 14.0156 1.76405 14.8008Z" fill="url(#paint4_linear_26:331)"/>
<path d="M4.25336 24.4329C4.23465 24.4607 4.22281 24.4926 4.2188 24.5259C4.2148 24.5592 4.21875 24.593 4.23033 24.6245C4.2419 24.656 4.26078 24.6843 4.28541 24.7071C4.31004 24.7299 4.33971 24.7465 4.37201 24.7556C4.62681 24.8742 6.81658 24.5008 8.71778 24.3991C10.619 24.2974 14.252 24.9083 14.1671 23.9066C14.0822 22.9049 10.7896 22.2599 9.07461 22.3957C7.35961 22.5315 4.67791 22.6333 4.25336 24.4329Z" fill="url(#paint5_linear_26:331)"/>
<path d="M4.12731 23.9944L4.25996 24.5927C4.25996 24.5927 5.27199 23.4313 6.67251 23.1768C8.07304 22.9224 11.2558 22.9731 12.147 23.1257C13.0383 23.2783 14.2351 23.9405 14.2351 23.9405C14.3306 23.5646 14.3306 23.1707 14.2351 22.7948C14.082 22.1072 14.0568 22.0055 14.0568 22.0055C14.0568 22.0055 14.1076 19.8665 14.2096 18.7717C14.2681 18.0901 14.2251 17.4037 14.082 16.7347C14.7161 15.8201 15.0702 14.7406 15.1009 13.6281C15.1516 11.7689 14.0568 7.79711 13.4209 6.72751C12.7849 5.65791 9.62722 4.10461 8.12449 4.30849C6.62177 4.51236 4.33049 7.28786 3.43956 8.71359C2.54864 10.1393 1.63146 11.8967 1.78424 13.8827C1.93701 15.8688 3.13366 16.3784 3.13366 17.2952C3.13366 18.2121 3.59251 22.4922 4.12731 23.9944Z" fill="url(#paint6_linear_26:331)"/>
<path d="M4.14166 24.0796L4.24911 24.5957C4.24911 24.5957 5.27199 23.4313 6.67251 23.1768C8.07304 22.9224 11.2558 22.9731 12.147 23.1257C13.0383 23.2783 14.2351 23.9405 14.2351 23.9405C14.3306 23.5646 14.3306 23.1707 14.2351 22.7948C14.082 22.1072 14.0568 22.0055 14.0568 22.0055C14.0568 22.0055 14.1076 19.8665 14.2096 18.7717C14.2681 18.0901 14.2251 17.4037 14.082 16.7347C14.7161 15.8201 15.0702 14.7406 15.1009 13.6281C15.1516 11.7689 14.0568 7.79711 13.4209 6.72751C12.7849 5.65791 9.62722 4.10461 8.12449 4.30849C6.62177 4.51236 4.33049 7.28786 3.43956 8.71359C2.54864 10.1393 1.63146 11.8967 1.78424 13.8827C1.93701 15.8688 3.13366 16.3784 3.13366 17.2952C3.13366 18.2121 3.60686 22.5769 4.14166 24.0796Z" fill="url(#paint7_linear_26:331)"/>
<path opacity="0.8" d="M4.06374 24.1008L4.25501 24.6032C4.25501 24.6032 5.27211 23.4307 6.67264 23.1768C8.07316 22.9229 11.2559 22.9731 12.1472 23.1257C13.0384 23.2783 14.2353 23.9405 14.2353 23.9405C14.3307 23.5646 14.3307 23.1707 14.2353 22.7948C14.0821 22.1072 14.0569 22.0055 14.0569 22.0055C14.0569 22.0055 14.1077 19.8665 14.2097 18.7717C14.2682 18.0901 14.2252 17.4037 14.0821 16.7347C14.7163 15.8201 15.0703 14.7406 15.101 13.6281C15.1517 11.7689 14.0569 7.79711 13.421 6.72751C12.785 5.65791 9.62734 4.10461 8.12461 4.30849C6.62189 4.51236 4.33061 7.28786 3.43969 8.71359C2.54876 10.1393 1.63159 11.8967 1.78436 13.8827C1.93714 15.8688 3.13379 16.3784 3.13379 17.2952C3.13379 18.2121 3.52894 22.5983 4.06374 24.1008Z" fill="url(#paint8_linear_26:331)"/>
<path opacity="0.7" d="M0.891968 22.4126C0.891968 22.4126 1.50324 26.2832 3.13197 28.4219C4.76069 30.5606 5.98447 34.5333 5.47487 37.5888C4.96527 40.6443 2.01179 39.3202 1.91012 37.0795C1.80844 34.8388 1.29884 31.749 1.09497 30.0176C0.891091 28.2861 0.891968 22.4126 0.891968 22.4126Z" fill="url(#paint9_linear_26:331)"/>
<path opacity="0.4" d="M1.63933 39.7957C1.63933 39.7957 2.35229 42.0026 2.79434 42.5458C3.23639 43.089 5.27269 44.3115 4.79721 45.8393C4.32174 47.367 2.14928 49.3361 1.30036 47.6047C0.451435 45.8732 2.14928 43.4966 1.97918 42.6139C1.80908 41.7312 1.23176 40.0674 1.63933 39.7957Z" fill="url(#paint10_linear_26:331)"/>
<path opacity="0.3" d="M20.0402 20.0701C20.0402 20.0701 19.9381 28.6256 16.7808 34.1257C13.6234 39.6258 12.6048 38.9129 12.6048 38.9129C12.6048 38.9129 11.2807 35.0426 14.0308 32.0887C16.781 29.1349 18.4109 29.3388 20.0402 20.0701Z" fill="url(#paint11_linear_26:331)"/>
<path opacity="0.3" d="M20.4472 22.2097C20.4472 22.2097 20.7531 43.2932 17.4937 43.7008C14.2343 44.1083 13.2158 39.9321 13.2158 39.9321C13.2158 39.9321 18.5129 37.9965 20.4472 22.2097Z" fill="url(#paint12_linear_26:331)"/>
<path opacity="0.4" d="M13.3861 18.5087C13.3861 18.5087 15.0155 18.169 15.8986 16.8789C16.4469 16.0725 16.9457 15.2334 17.3922 14.3665C17.3922 14.3665 17.3243 17.1507 16.3058 18.7801C15.2873 20.4096 13.4533 20.6813 13.4533 20.6813L13.3861 18.5087Z" fill="url(#paint13_linear_26:331)"/>
<g style="mix-blend-mode:multiply" opacity="0.5">
<path d="M8.19096 0.174805C8.19096 0.174805 7.88541 0.922055 8.08929 1.5671C8.29316 2.21215 8.70021 2.28005 8.93821 4.65638" stroke="#707070" stroke-width="0.567" stroke-miterlimit="10"/>
</g>
<path d="M1.87668 14.4344C1.87668 14.4344 1.06188 12.0239 3.37066 8.86638C5.67943 5.70885 7.00331 5.19995 7.00331 5.19995" stroke="#707070" stroke-width="0.567" stroke-miterlimit="10"/>
<path d="M2.80176 10.6233C2.80176 10.6233 2.01251 12.0494 2.39453 13.1958C2.77655 14.3422 5.34801 13.1958 5.42448 13.2975C5.50096 13.3991 2.75101 13.9854 2.69991 14.5452C2.64881 15.105 6.46853 16.073 6.69778 16.7098C6.92703 17.3466 3.51471 15.2837 3.18361 15.5637C2.85251 15.8437 5.39893 16.9131 6.08633 17.6774C6.77373 18.4416 3.33621 16.0224 3.36176 16.4296C3.38731 16.8368 3.61656 18.0338 4.15101 18.6959C4.68546 19.3579 4.10026 20.4529 4.20211 21.3186C4.30396 22.1843 4.68581 23.7884 4.68581 23.7884L4.21716 24.5988C4.21716 24.5988 3.62916 22.0823 3.45101 20.4784C3.27286 18.8745 3.23471 16.837 3.04343 16.5059C2.85216 16.1748 1.91066 15.4489 1.83401 14.2526C1.75736 13.0563 2.07621 11.4003 2.80176 10.6233Z" fill="url(#paint14_linear_26:331)"/>
<g style="mix-blend-mode:multiply" opacity="0.5">
<path d="M4.20227 23.355C4.20227 23.355 4.73707 22.1073 7.76702 21.9034C10.797 21.6995 13.8274 22.6419 13.8274 22.6419" stroke="#707070" stroke-width="0.567" stroke-miterlimit="10"/>
</g>
<g style="mix-blend-mode:multiply" opacity="0.5">
<path d="M1.35071 52.9175C1.35071 52.9175 5.47581 54.8017 8.88778 54.8017C12.2998 54.8017 19.6328 53.274 19.6328 53.274C19.6328 53.274 22.2301 52.5103 22.7394 51.4407" stroke="#707070" stroke-width="0.567" stroke-miterlimit="10"/>
</g>
<path d="M5.30566 0.701666C5.30566 0.701666 7.07141 0.27729 8.24251 0.599641C9.41361 0.921991 10.8229 2.12739 11.5698 2.53497C12.3167 2.94254 15.6779 4.91164 16.2379 5.62459" stroke="#707070" stroke-width="0.567" stroke-miterlimit="10"/>
<path opacity="0.1" d="M3.23828 10.2715C3.23828 10.2715 4.81678 6.60468 6.62488 5.866C8.43298 5.12733 11.7429 5.586 12.5066 6.706C13.2703 7.826 13.9583 9.50705 13.4999 10.3219C13.0416 11.1367 10.4696 7.64838 8.43263 8.33595C6.39563 9.02353 4.63863 11.1885 4.00215 11.1885C3.36568 11.1885 4.99493 10.2452 3.23828 10.2715Z" fill="url(#paint15_linear_26:331)"/>
<path opacity="0.1" d="M13.5727 21.98C14.5274 21.6278 15.4342 21.1575 16.2721 20.58C17.5706 19.6632 18.1818 18.161 18.7418 18.263C19.3018 18.365 18.4874 25.3155 16.7559 27.8623C15.0245 30.409 11.9938 32.9037 10.9501 30.1282C9.90644 27.3527 10.6953 25.4177 8.96371 24.5264C7.23208 23.6351 9.19384 21.7507 13.5727 21.98Z" fill="url(#paint16_linear_26:331)"/>
<path opacity="0.2" d="M16.1955 5.83624C16.3739 6.09104 17.9525 8.58636 17.6472 8.94284C17.3418 9.29931 15.7885 8.25526 15.0243 7.77156C14.26 7.28786 13.14 5.22531 11.3318 4.71606C9.52349 4.20681 9.54921 1.40576 9.54921 1.40576L16.1955 5.83624Z" fill="url(#paint17_linear_26:331)"/>
<g style="mix-blend-mode:multiply" opacity="0.5">
<path d="M2.77638 15.8687C2.77638 15.8687 2.26713 15.1561 2.11435 13.7555C1.96158 12.355 2.95435 9.7321 4.07435 8.51025" stroke="#707070" stroke-width="0.567" stroke-miterlimit="10"/>
</g>
<g style="mix-blend-mode:multiply" opacity="0.5">
<path d="M14.4385 16.1322C14.8078 15.1586 14.9473 14.113 14.8461 13.0767C14.6592 11.4299 13.8785 8.61206 13.8785 8.61206" stroke="#707070" stroke-width="0.567" stroke-miterlimit="10"/>
</g>
<path d="M4.78821 7.7972C4.78821 7.7972 5.70468 6.1172 7.07966 5.7847C8.45463 5.4522 11.0264 5.35192 12.1722 6.16672C12.834 6.61203 13.3131 7.281 13.5216 8.05094" stroke="#707070" stroke-width="0.567" stroke-miterlimit="10"/>
<path opacity="0.2" d="M4.89354 40.8836C5.48854 40.3071 6.85652 42.3093 8.46914 42.5471C10.0818 42.7849 13.2598 40.8496 13.4701 41.5286C13.6805 42.2076 11.9513 44.7537 12.3485 46.6211C12.7458 48.4885 14.966 50.22 15.1996 51.9175C15.4333 53.615 14.8708 54.573 14.8708 54.573C14.8708 54.573 12.372 53.6148 10.1054 53.5811C7.83879 53.5473 6.03927 54.8372 4.28647 53.5132C2.53367 52.1891 4.00647 50.6957 4.54337 48.2168C5.08027 45.7379 5.66494 44.2793 4.94044 43.2938C4.21594 42.3084 4.33284 41.4266 4.89354 40.8836Z" fill="url(#paint18_linear_26:331)"/>
</g>
<defs>
<linearGradient id="paint0_linear_26:331" x1="0.0218506" y1="28" x2="23.0452" y2="28" gradientUnits="userSpaceOnUse">
<stop stop-color="#B8C2CC"/>
<stop offset="0.077" stop-color="#C7CFD7"/>
<stop offset="0.187" stop-color="#D6DCE1"/>
<stop offset="0.317" stop-color="#DFE3E8"/>
<stop offset="0.514" stop-color="#E2E6EA"/>
<stop offset="0.774" stop-color="#E0E4E8"/>
<stop offset="0.868" stop-color="#D9DEE3"/>
<stop offset="0.934" stop-color="#CDD4DB"/>
<stop offset="0.988" stop-color="#BCC6CF"/>
<stop offset="1" stop-color="#B8C2CC"/>
</linearGradient>
<linearGradient id="paint1_linear_26:331" x1="11.5442" y1="56" x2="11.5442" y2="-0.000244141" gradientUnits="userSpaceOnUse">
<stop stop-color="white" stop-opacity="0"/>
<stop offset="0.347" stop-color="white" stop-opacity="0.365"/>
<stop offset="0.799" stop-color="white" stop-opacity="0.82"/>
<stop offset="1" stop-color="white"/>
</linearGradient>
<linearGradient id="paint2_linear_26:331" x1="11.5335" y1="56.0005" x2="11.5335" y2="-0.000488281" gradientUnits="userSpaceOnUse">
<stop stop-color="white" stop-opacity="0"/>
<stop offset="0.347" stop-color="white" stop-opacity="0.365"/>
<stop offset="0.799" stop-color="white" stop-opacity="0.82"/>
<stop offset="1" stop-color="white"/>
</linearGradient>
<linearGradient id="paint3_linear_26:331" x1="11.5119" y1="56.0005" x2="11.5119" y2="-0.000488281" gradientUnits="userSpaceOnUse">
<stop stop-color="#B8C2CC"/>
<stop offset="0.016" stop-color="#B9C3CD" stop-opacity="0.953"/>
<stop offset="0.103" stop-color="#C3CBD4" stop-opacity="0.733"/>
<stop offset="0.197" stop-color="#CBD2D9" stop-opacity="0.533"/>
<stop offset="0.294" stop-color="#D2D8DE" stop-opacity="0.369"/>
<stop offset="0.398" stop-color="#D8DDE2" stop-opacity="0.235"/>
<stop offset="0.51" stop-color="#DCE1E6" stop-opacity="0.129"/>
<stop offset="0.634" stop-color="#DFE3E8" stop-opacity="0.055"/>
<stop offset="0.78" stop-color="#E1E5E9" stop-opacity="0.012"/>
<stop offset="1" stop-color="#E2E6EA" stop-opacity="0"/>
</linearGradient>
<linearGradient id="paint4_linear_26:331" x1="4.44187" y1="-1.98418" x2="-1.50331" y2="11.9012" gradientUnits="userSpaceOnUse">
<stop stop-color="#C3CFDA"/>
<stop offset="1" stop-color="#C3CFDA" stop-opacity="0"/>
</linearGradient>
<linearGradient id="paint5_linear_26:331" x1="4.21729" y1="23.5781" x2="14.1686" y2="23.5781" gradientUnits="userSpaceOnUse">
<stop stop-color="#B0BCC7"/>
<stop offset="0.179" stop-color="#D3DAE0"/>
<stop offset="0.587" stop-color="#D8DEE4"/>
<stop offset="0.86" stop-color="#CAD3DA"/>
<stop offset="1" stop-color="#B0BCC7"/>
</linearGradient>
<linearGradient id="paint6_linear_26:331" x1="1.76746" y1="14.4415" x2="15.1026" y2="14.4415" gradientUnits="userSpaceOnUse">
<stop stop-color="#C4C9CF"/>
<stop offset="0.073" stop-color="#D2D5D9"/>
<stop offset="0.184" stop-color="#E1E2E4"/>
<stop offset="0.316" stop-color="#EAEAEB"/>
<stop offset="0.514" stop-color="#EDEDED"/>
<stop offset="0.776" stop-color="#EBEBEB"/>
<stop offset="0.87" stop-color="#E4E5E6"/>
<stop offset="0.937" stop-color="#D8DBDE"/>
<stop offset="0.99" stop-color="#C7CCD1"/>
<stop offset="1" stop-color="#C4C9CF"/>
</linearGradient>
<linearGradient id="paint7_linear_26:331" x1="8.43501" y1="24.5957" x2="8.43501" y2="4.29028" gradientUnits="userSpaceOnUse">
<stop stop-color="#B8C2CC"/>
<stop offset="0.016" stop-color="#B9C3CD" stop-opacity="0.953"/>
<stop offset="0.103" stop-color="#C3CBD4" stop-opacity="0.733"/>
<stop offset="0.197" stop-color="#CBD2D9" stop-opacity="0.533"/>
<stop offset="0.294" stop-color="#D2D8DE" stop-opacity="0.369"/>
<stop offset="0.398" stop-color="#D8DDE2" stop-opacity="0.235"/>
<stop offset="0.51" stop-color="#DCE1E6" stop-opacity="0.129"/>
<stop offset="0.634" stop-color="#DFE3E8" stop-opacity="0.055"/>
<stop offset="0.78" stop-color="#E1E5E9" stop-opacity="0.012"/>
<stop offset="1" stop-color="#E2E6EA" stop-opacity="0"/>
</linearGradient>
<linearGradient id="paint8_linear_26:331" x1="8.43514" y1="24.6032" x2="8.43514" y2="4.29028" gradientUnits="userSpaceOnUse">
<stop stop-color="white" stop-opacity="0"/>
<stop offset="0.347" stop-color="white" stop-opacity="0.365"/>
<stop offset="0.799" stop-color="white" stop-opacity="0.82"/>
<stop offset="1" stop-color="white"/>
</linearGradient>
<linearGradient id="paint9_linear_26:331" x1="4.27118" y1="28.7236" x2="0.0804309" y2="29.1835" gradientUnits="userSpaceOnUse">
<stop stop-color="#AEBECD"/>
<stop offset="1" stop-color="#C3CFDA" stop-opacity="0"/>
</linearGradient>
<linearGradient id="paint10_linear_26:331" x1="3.16677" y1="43.0111" x2="0.560535" y2="43.7619" gradientUnits="userSpaceOnUse">
<stop stop-color="#AEBECD"/>
<stop offset="1" stop-color="#C3CFDA" stop-opacity="0"/>
</linearGradient>
<linearGradient id="paint11_linear_26:331" x1="20.0091" y1="29.4122" x2="17.3957" y2="29.4249" gradientUnits="userSpaceOnUse">
<stop stop-color="#AEBECD"/>
<stop offset="1" stop-color="#C3CFDA" stop-opacity="0"/>
</linearGradient>
<linearGradient id="paint12_linear_26:331" x1="20.1001" y1="32.9262" x2="17.4865" y2="32.9359" gradientUnits="userSpaceOnUse">
<stop stop-color="#AEBECD"/>
<stop offset="1" stop-color="#C3CFDA" stop-opacity="0"/>
</linearGradient>
<linearGradient id="paint13_linear_26:331" x1="18.5019" y1="18.3575" x2="13.5132" y2="17.8145" gradientUnits="userSpaceOnUse">
<stop stop-color="#AEBECD"/>
<stop offset="1" stop-color="#C3CFDA" stop-opacity="0"/>
</linearGradient>
<linearGradient id="paint14_linear_26:331" x1="1.82288" y1="17.611" x2="6.70882" y2="17.611" gradientUnits="userSpaceOnUse">
<stop stop-color="#AEBECD"/>
<stop offset="1" stop-color="#C3CFDA" stop-opacity="0"/>
</linearGradient>
<linearGradient id="paint15_linear_26:331" x1="8.44285" y1="11.1885" x2="8.44285" y2="5.50659" gradientUnits="userSpaceOnUse">
<stop stop-color="#C3CFDA" stop-opacity="0"/>
<stop offset="1" stop-color="#AEBECD"/>
</linearGradient>
<linearGradient id="paint16_linear_26:331" x1="18.1976" y1="24.7363" x2="14.5577" y2="24.7962" gradientUnits="userSpaceOnUse">
<stop stop-color="#AEBECD"/>
<stop offset="1" stop-color="#C3CFDA" stop-opacity="0"/>
</linearGradient>
<linearGradient id="paint17_linear_26:331" x1="16.6691" y1="3.84852" x2="11.4797" y2="6.42786" gradientUnits="userSpaceOnUse">
<stop stop-color="#AEBECD"/>
<stop offset="1" stop-color="#C3CFDA" stop-opacity="0"/>
</linearGradient>
<linearGradient id="paint18_linear_26:331" x1="11.1961" y1="42.9039" x2="6.39551" y2="55.0553" gradientUnits="userSpaceOnUse">
<stop stop-color="#AEBECD"/>
<stop offset="1" stop-color="#C3CFDA" stop-opacity="0"/>
</linearGradient>
<clipPath id="clip0_26:331">
<rect width="23.0555" height="56" fill="white"/>
</clipPath>
</defs>
</svg>
