<svg width="19" height="20" viewBox="0 0 19 20" fill="none" xmlns="http://www.w3.org/2000/svg">
<path d="M3.828 14L6.364 11.464L4.95 10.05L0 15L4.95 19.95L6.364 18.536L3.828 16L11 16C13.1217 16 15.1566 15.1571 16.6569 13.6568C18.1571 12.1565 19 10.1217 19 7.99995C19 5.87822 18.1571 3.84339 16.6569 2.3431C15.1566 0.842804 13.1217 -4.95911e-05 11 -4.95911e-05H2L2 1.99995H11C12.5913 1.99995 14.1174 2.63209 15.2426 3.75731C16.3679 4.88253 17 6.40865 17 7.99995C17 9.59125 16.3679 11.1174 15.2426 12.2426C14.1174 13.3678 12.5913 14 11 14L3.828 14Z" fill="#486581"/>
</svg>
